<?xml version="1.0" encoding="UTF-8"?>
<svg width="540px" height="540px" viewBox="0 0 540 540" version="1.1" xmlns="http://www.w3.org/2000/svg" xmlns:xlink="http://www.w3.org/1999/xlink">
    <!-- Generator: Sketch 61.2 (89653) - https://sketch.com -->
    <title>Page 1</title>
    <desc>Created with Sketch.</desc>
    <defs>
        <polygon id="path-1" points="0 0.474109122 258.417092 0.474109122 258.417092 237.608387 0 237.608387"></polygon>
        <polygon id="path-3" points="0.0958235294 0.147727273 39.4434706 0.147727273 39.4434706 38.6601091 0.0958235294 38.6601091"></polygon>
    </defs>
    <g id="Page-1" stroke="none" stroke-width="1" fill="none" fill-rule="evenodd">
        <g id="Group-21" transform="translate(107.000000, 115.000000)">
            <path d="M235.37153,40.5672784 C232.349215,48.2108156 234.129522,57.0156051 240.053751,62.9714398 C248.103711,71.0589852 261.204695,71.091373 269.257578,63.0415154 L269.261085,63.0373933 C269.353432,62.9461184 269.445194,62.8530768 269.536372,62.7588576 C268.391388,62.0722348 267.244065,61.3862008 266.096743,60.699578 C259.14384,56.5427422 251.954226,52.2439886 245.284208,47.7397193 C242.015245,45.5308666 238.687835,43.1229758 235.37153,40.5672784 M254.70476,72 C248.651948,72 242.596213,69.6845618 237.989389,65.0560408 C230.740158,57.7675925 228.933549,46.7345176 233.494199,37.6011385 L234.29376,36 L235.697666,37.1011876 C239.444144,40.0408283 243.216924,42.7973305 246.911969,45.2941407 C253.514771,49.7536559 260.669317,54.0312101 267.58832,58.1680243 C269.24472,59.1579154 270.89995,60.1478065 272.548751,61.1406419 L274,62.0145255 L272.931582,63.3347728 C272.397957,63.9943076 271.868423,64.5825891 271.313758,65.1337717 C266.73265,69.7122387 260.720167,72 254.70476,72" id="Fill-1" fill="#C8CBE7"></path>
            <g id="Group-5" transform="translate(0.000000, 71.000000)">
                <mask id="mask-2" fill="white">
                    <use xlink:href="#path-1"></use>
                </mask>
                <g id="Clip-4"></g>
                <path d="M173.581448,46.2887081 C179.858527,46.2887081 186.300051,47.135518 193.462781,48.3942736 C198.552924,49.2880958 203.495654,50.3629156 208.275114,51.4013007 C209.645876,51.6992415 210.985511,51.9901304 212.286384,52.2680909 L213.00759,34.1671625 C210.116892,34.8077057 207.237352,35.4423723 204.367797,36.0746884 C195.614067,38.0039575 186.562575,39.999044 177.734257,42.0546588 C173.522717,43.0360415 170.247337,42.0094094 167.42594,38.8237353 C162.901956,33.715844 158.106051,28.6802341 153.468717,23.8097551 L153.065829,23.386644 C152.731067,23.0352267 152.197797,22.6890983 151.900035,22.5615773 C149.17613,23.7409995 146.51859,25.0567575 143.710114,26.4477353 C143.36067,26.6210933 143.009463,26.7944514 142.657083,26.9689847 L145.620019,29.9360514 C151.42021,35.745602 156.898559,41.2325304 162.497892,46.756481 C162.700511,46.9562835 163.281352,47.1319921 163.501003,47.0926193 C166.871527,46.5343477 170.202702,46.2887081 173.581448,46.2887081 L173.581448,46.2887081 Z M215.082527,55.8563081 L213.384638,55.5025402 C211.554606,55.1205649 209.635305,54.7033304 207.651987,54.2725798 C202.90013,53.2400711 197.986765,52.1723032 192.954765,51.2878835 C182.232987,49.4044514 173.202051,48.4618538 163.980829,49.9921057 C162.814448,50.1848563 161.291575,49.692402 160.435876,48.8479427 C154.828908,43.3169402 149.346448,37.8264859 143.542733,32.0128217 L137.67559,26.1386291 L139.524416,25.2354044 C140.500511,24.7588168 141.459575,24.2839921 142.407479,23.8144563 C145.347511,22.3582489 148.123686,20.9831378 151.017908,19.7425995 C152.864971,18.9475032 155.168368,21.3351427 155.19186,21.3598242 L155.594749,21.7829353 C160.250289,26.6722193 165.064987,31.7278094 169.623622,36.8744859 C171.736733,39.2609501 173.894479,39.9302884 177.068257,39.1933699 C185.913606,37.1330538 194.973908,35.1362044 203.73586,33.2051723 C207.219733,32.4376958 210.717114,31.6666933 214.232114,30.8857007 L216.09386,30.4719921 L215.082527,55.8563081 Z M137.763098,43.5531773 L132.758702,82.3947773 C137.565178,73.0751674 142.744003,63.702081 149.765781,55.5648316 L137.763098,43.5531773 Z M127.691463,98.7433205 L135.614749,37.2470588 L153.798194,55.4443625 L152.871432,56.480397 C144.469495,65.8699378 138.928305,76.7403674 133.061749,88.2495773 C132.552559,89.2485896 132.042194,90.2493649 131.530067,91.2489649 L127.691463,98.7433205 Z M57.9764159,17.0881649 C52.0006222,17.0881649 45.7846222,18.339281 39.6678762,21.1776514 C18.7147175,30.8980415 9.23332063,56.0919575 18.532654,77.3397748 C23.0907016,87.7547723 31.4174635,95.833844 41.9794952,100.089637 C52.5397651,104.343666 64.122527,104.286664 74.5923524,99.9280316 C84.4578444,95.8215032 92.7299873,87.6877798 97.2874476,77.6136217 C101.678114,67.9085106 102.327083,57.5387625 99.1597651,48.230318 C98.8896063,48.357839 98.6288444,48.4824217 98.3698444,48.6105304 C94.7279873,50.4040514 91.0873048,52.2005106 87.4460349,53.9957946 C79.1392413,58.0935081 70.548781,62.3304958 62.0869397,66.4722835 C57.665146,68.6342637 53.3402571,67.4066538 51.3234635,63.4153057 C50.3967016,61.5818242 50.2140508,59.6860514 50.7948921,57.9313156 C51.4556063,55.9362291 53.0507175,54.2590637 55.408146,53.0825798 C58.2119238,51.6833748 61.0227492,50.2988612 63.8329873,48.9143477 C65.4921143,48.0975081 67.150654,47.280081 68.808019,46.4603032 C74.3415746,43.7224217 79.8739556,40.9821896 85.4110349,38.2401946 L92.489781,34.7342489 C85.804527,24.605439 72.6154952,17.0881649 57.9764159,17.0881649 L57.9764159,17.0881649 Z M58.1109079,106.178911 C52.2837016,106.178911 46.4512095,105.058841 40.8824159,102.81459 C29.6038762,98.2702588 20.7109556,89.6417304 15.8422254,78.5186094 C5.90743175,55.8181106 16.0413206,28.8988415 38.4321937,18.510876 C49.2872889,13.4764415 61.4168286,12.7671427 72.5873048,16.5157896 C82.5784794,19.8683575 91.0602889,26.4547872 95.8579556,34.584397 L96.6619714,35.9465798 L86.7136698,40.8728859 C81.1765905,43.6154686 75.6436222,46.3557007 70.1094794,49.0941699 C68.4509397,49.915123 66.7906381,50.7325501 65.1297492,51.5505649 C62.3242095,52.9327279 59.5180825,54.3143032 56.7195905,55.7117452 C55.0769079,56.5321106 53.9921619,57.6186835 53.5822254,58.8556958 C53.2480508,59.8658736 53.3696222,60.9530341 53.9434159,62.0895575 C55.236654,64.6476168 57.7978762,65.2999131 60.7960508,63.8325402 C69.2549556,59.6931032 77.8424794,55.4572909 86.1475111,51.3607526 C89.7893683,49.5642933 93.4306381,47.7684217 97.0730825,45.9743131 C97.5435111,45.7427773 98.0180508,45.5194686 98.5413365,45.2744168 L100.784829,44.2142884 L101.356273,45.6840119 C105.411003,56.1066489 104.915908,67.8761896 99.9626063,78.8247773 C95.1015111,89.5706242 86.2655587,98.2514538 75.7205587,102.641819 C70.0566222,104.998901 64.0867016,106.178911 58.1109079,106.178911 L58.1109079,106.178911 Z M168.598194,79.3548415 C166.073384,79.3548415 163.559733,80.2292711 161.403162,82.0010489 C158.416733,84.4562686 155.418559,87.5449798 152.237146,91.4440662 C149.702352,94.5504069 147.319083,97.8982736 145.013924,101.136837 C144.886479,101.316071 144.758448,101.495306 144.631003,101.675128 L178.672765,84.644318 C178.080178,84.0501995 177.562178,83.5313007 177.04359,83.0147526 C174.604527,80.5871526 171.594606,79.3548415 168.598194,79.3548415 L168.598194,79.3548415 Z M141.00559,106.774204 L138.803797,104.732693 L139.574924,103.676679 C140.601527,102.271009 141.611686,100.851824 142.622432,99.432639 C144.954606,96.1552909 147.366654,92.766876 149.962527,89.5859032 C153.268448,85.5340267 156.401114,82.3107427 159.539067,79.7309402 C165.463178,74.8628119 173.512733,75.3564415 179.114416,80.931518 C179.689971,81.5050686 180.263765,82.0797946 180.939749,82.75736 L183.62959,85.4494044 L141.00559,106.774204 Z M133.028273,124.306871 L141.827225,133.112283 C153.140416,125.095503 163.115146,121.662427 176.689448,121.11297 L178.955257,101.611661 L133.028273,124.306871 Z M141.519479,136.959656 L128.056178,123.487093 L182.496098,96.5854538 L179.313511,123.972496 L178.042003,124.007167 C164.051892,124.384441 154.096543,127.808703 142.533749,136.220975 L141.519479,136.959656 Z M152.57367,143.842264 L171.577575,162.86052 L174.611575,136.191004 C166.272479,136.771019 159.032225,139.284417 152.57367,143.842264 L152.57367,143.842264 Z M173.806384,169.24656 L148.100781,143.521404 L149.43513,142.503 C157.162257,136.603538 165.921273,133.548911 176.211971,133.163997 L177.919257,133.099943 L173.806384,169.24656 Z M141.901813,154.667444 C131.852495,167.187419 131.575289,188.722012 141.508908,203.537953 C152.390432,219.766614 173.710654,226.696234 192.205368,220.012841 C210.212622,213.505745 221.909321,194.786604 220.01821,175.504491 C218.14413,156.391622 203.384067,142.048155 189.664114,138.606264 C189.626527,138.83016 189.593051,139.05053 189.566035,139.269725 C188.3744,148.994229 187.188638,158.719908 186.002289,168.445587 L184.938098,177.169903 C184.921067,177.313879 184.899337,177.458441 184.878194,177.602417 C184.847654,177.811622 184.814178,178.019651 184.804194,178.229444 C184.599225,182.400614 182.767432,185.165528 179.358733,186.449553 C175.204749,188.014476 172.442083,185.245449 170.613225,183.41373 C163.783495,176.56932 156.949654,169.729024 150.115225,162.888728 L141.901813,154.667444 Z M177.697844,225.475088 C162.542527,225.475088 147.72021,218.075345 139.070432,205.17457 C133.749479,197.239474 130.973305,187.338086 131.253448,177.294486 C131.535352,167.173316 134.897654,158.020012 140.720749,151.520555 L141.756162,150.365227 L152.191924,160.81137 C159.026352,167.651666 165.860781,174.49255 172.691098,181.337548 C174.939876,183.591202 176.287146,184.46857 178.324495,183.69933 C180.59794,182.843118 181.724971,181.059587 181.87121,178.085469 C181.887067,177.75697 181.932876,177.446101 181.9734,177.172254 C181.991019,177.053548 182.009225,176.933666 182.023321,176.814372 L183.087511,168.090056 C184.27386,158.36379 185.46021,148.637523 186.651257,138.912432 C186.719971,138.351809 186.820987,137.808229 186.918479,137.282866 C186.961352,137.052506 187.004225,136.822145 187.043575,136.590609 L187.298463,135.110308 L188.772003,135.397671 C203.939067,138.359449 220.86686,154.063335 222.94121,175.217716 C224.96094,195.817938 212.454352,215.81934 193.203194,222.77658 C188.153575,224.601246 182.905448,225.475088 177.697844,225.475088 L177.697844,225.475088 Z M126.637257,31.3993106 L126.50159,33.9138835 C126.478098,34.3393452 126.464003,34.7066291 126.451083,35.0363032 C126.425829,35.6915378 126.40586,36.2098489 126.337146,36.7557798 L125.010432,47.358239 C123.497543,59.4556909 121.932971,71.9650884 120.351956,84.2646933 C119.773463,88.7643625 119.173241,93.2622686 118.573019,97.7595872 C117.522337,105.639444 116.435241,113.787859 115.488511,121.811103 C115.373987,122.780145 115.990067,124.38973 116.807003,125.25652 C121.225273,129.942476 126.14686,134.888762 132.296495,140.824071 C134.419003,142.872046 134.594019,144.756654 132.882622,147.12255 C125.025702,157.981814 121.35859,171.335083 122.557273,184.722437 C123.754194,198.093335 129.702971,210.383538 139.307702,219.329987 C149.44159,228.769479 162.4374,234.207632 175.900702,234.642496 C189.353432,235.085 202.481971,230.486604 212.862527,221.718802 C226.679384,210.047987 233.81921,192.206214 231.961575,173.991281 C230.106876,155.803967 219.528987,139.798027 203.665384,131.173612 C200.631384,129.524654 197.415908,128.258846 194.011908,126.918995 C192.436765,126.298432 190.808178,125.657888 189.193686,124.973271 L188.176479,124.541933 L188.308622,123.444195 C188.57467,121.23814 188.893575,118.979197 189.201908,116.794886 C189.915479,111.732832 190.653717,106.498595 190.834019,101.336051 C191.096543,93.8087872 194.083559,89.6399674 200.82167,87.3951279 C204.016003,86.3308859 207.032971,85.325997 210.905638,86.9855328 C217.301352,89.7251773 223.919067,90.0906983 230.576717,88.0709304 C236.050368,86.4102193 239.282289,83.1375723 240.748781,77.7717007 C242.140098,72.679676 243.675892,67.5447526 245.16059,62.5790736 C246.541924,57.9589353 247.970241,53.1813057 249.275225,48.4636168 C249.72921,46.8228859 250.198463,45.1821551 250.667717,43.5408365 C252.47367,37.2247279 254.340702,30.6941254 255.278035,24.1934933 C256.138432,18.2311526 254.218543,12.5109254 250.011114,8.49959704 C245.596368,4.29022914 239.452019,2.57721679 233.15321,3.79953778 C230.741749,4.26731062 227.946194,4.83204642 225.283368,5.61127605 C219.39567,7.33369086 213.51267,9.07138469 207.62967,10.8090785 C198.017892,13.6486242 188.0784,16.5845452 178.27986,19.4011723 C176.546733,19.9000909 174.224543,19.6385847 172.631194,18.7682686 C167.267956,15.8382242 162.047432,12.9293353 157.134067,9.56560198 C154.69794,7.89725136 152.829146,7.81204148 149.991305,9.23416494 C139.74113,14.3784909 129.27894,19.5192909 119.160908,24.4914341 C115.855575,26.1157106 112.550829,27.7405748 109.247257,29.367202 C108.576559,29.6980514 107.901162,29.9983427 107.248083,30.2892316 C106.95913,30.4185156 106.672527,30.5460365 106.39121,30.6747328 L105.253019,31.193044 L104.56059,30.1517205 C93.6027175,13.6803575 79.1915111,7.75856494 69.0311937,5.69060938 C55.8738762,3.01266864 41.8103524,5.29688099 30.446654,11.9567674 C18.6712571,18.8587674 9.86408254,29.8373254 5.64784444,42.8709106 C1.43278095,55.9003822 2.1516381,69.9153501 7.67344762,82.3330736 C19.0600508,107.941286 47.7908444,121.006604 74.5042571,112.725967 C88.6852413,108.329138 100.685575,98.0175674 107.427797,84.4345254 C114.184114,70.8226884 115.050971,55.4619921 109.867448,41.1825798 L109.419337,39.9485057 L126.637257,31.3993106 Z M177.649686,237.608387 C177.035368,237.608387 176.421051,237.598985 175.806146,237.579004 C161.632797,237.121809 147.960416,231.40452 137.306178,221.480802 C127.171114,212.040135 120.894035,199.078832 119.632511,184.985118 C118.370987,170.891404 122.231321,156.83295 130.504051,145.399548 C131.362686,144.213074 131.339194,143.982713 130.257384,142.939039 C124.07486,136.970822 119.121559,131.992802 114.670987,127.27335 C113.441178,125.968758 112.325305,123.554674 112.571971,121.46615 C113.521638,113.421162 114.609908,105.26217 115.662352,97.3711477 C116.261987,92.8779427 116.861035,88.3853254 117.439527,83.8891822 C119.019956,71.5948662 120.58394,59.0884069 122.096241,46.9938933 L123.423543,36.3902588 C123.428829,36.3502983 123.433527,36.3097501 123.438225,36.2680267 L113.062368,41.4199921 C118.033289,56.1084119 116.980257,71.795844 110.057733,85.7420563 C102.959606,100.041449 90.3179397,110.89895 75.3728762,115.532017 C69.6789873,117.29733 63.8940667,118.14179 58.1954794,118.14179 C35.7364794,118.143553 14.5548603,105.037098 4.99006667,83.5277748 C-0.825980952,70.4465896 -1.5847746,55.686476 2.85405079,41.965923 C7.29228889,28.2459575 16.5646063,16.6879723 28.9625429,9.42162667 C40.9417333,2.40033284 55.7593524,-0.00963753086 69.6167333,2.81110321 C80.1035905,4.94487605 94.8836222,10.9683328 106.306051,27.4931723 C106.854003,27.2487081 107.412527,26.9960168 107.949908,26.7309847 C111.254654,25.1031822 114.560575,23.4789057 117.866495,21.8546291 C127.979241,16.8848365 138.435559,11.7463872 148.674575,6.60852543 C152.451511,4.71157728 155.477289,4.87141926 158.792019,7.14035259 C163.59321,10.4276909 168.743844,13.2960316 174.038956,16.1890538 C174.962194,16.6938489 176.46921,16.865444 177.469384,16.5769057 C187.257352,13.7632168 197.191559,10.8290588 206.798638,7.99127605 C212.683987,6.25240691 218.569337,4.51412543 224.458797,2.79112296 C227.243194,1.97663407 230.118035,1.39544395 232.594098,0.91533037 C239.839051,-0.490338765 246.924844,1.49828346 252.036717,6.3722884 C256.941273,11.0482538 259.181829,17.6975625 258.18459,24.6136662 C257.219067,31.3105748 255.323844,37.9387279 253.490876,44.3488612 C253.023971,45.9825402 252.557067,47.615044 252.105432,49.2475477 C250.792225,53.9946193 249.35921,58.7869402 247.973765,63.4205946 C246.493765,68.3704069 244.963257,73.4882884 243.581337,78.5468168 C241.847035,84.8928958 237.872178,88.928318 231.428892,90.8828563 C224.092321,93.1088909 216.798622,92.70576 209.749829,89.6863921 C207.034146,88.5240119 205.040844,89.0869847 201.749019,90.18296 C196.22486,92.0234933 193.987241,95.179197 193.768765,101.438303 C193.583178,106.755987 192.833781,112.068382 192.109638,117.205069 C191.854749,119.01093 191.592813,120.867918 191.360829,122.694935 C192.608257,123.209133 193.863908,123.702762 195.087257,124.184639 C198.423717,125.498046 201.874114,126.856703 205.066686,128.592634 C221.783638,137.68012 232.930035,154.539923 234.882813,173.692753 C236.839114,192.87379 229.315194,211.666975 214.756575,223.964229 C204.294971,232.800787 191.181702,237.608387 177.649686,237.608387 L177.649686,237.608387 Z" id="Fill-3" fill="#C8CBE7" mask="url(#mask-2)"></path>
            </g>
            <path d="M272.042203,61 C263.370311,55.8541335 254.515853,50.7820782 246.311494,45.3200436 C242.368768,42.6930596 238.586957,39.9475125 235,37.1734871 C236.026349,35.1515231 237.392085,33.2446349 239.092524,31.5475567 C247.835805,22.8232962 261.920315,22.8163219 270.588111,31.5336081 C278.626873,39.6092593 279.101428,52.4437037 272.042203,61" id="Fill-6" fill="#FE5A78"></path>
            <path d="M235.78534,37.4536806 C239.269208,40.1174715 242.767942,42.6217186 246.200078,44.9096952 C252.91748,49.3840131 260.196202,53.6769238 267.235293,57.8274268 C268.54048,58.5973734 269.845073,59.3667292 271.146692,60.1378577 C277.032818,52.0064408 276.182514,40.3940142 268.98466,33.1584063 C265.019746,29.168629 259.740725,26.9657424 254.119799,26.9545152 C248.470925,26.9627879 243.119956,29.1526746 239.090228,33.1767243 C237.800501,34.4637112 236.692133,35.8984238 235.78534,37.4536806 L235.78534,37.4536806 Z M271.857261,64 L270.756622,63.3470521 C269.082177,62.3525623 267.400002,61.361027 265.717827,60.3683099 C258.644249,56.1971253 251.32985,51.883533 244.544066,47.3637156 C240.727212,44.8192871 236.830679,42.0119067 232.963876,39.0195737 L232,38.273854 L232.550022,37.188956 C233.6905,34.9417517 235.181802,32.8901364 236.982901,31.0920184 C241.565029,26.5178379 247.634892,24 254.077581,24 L254.126339,24 C260.545838,24.0129999 266.573483,26.5278832 271.099122,31.081973 C279.65449,39.6813851 280.344247,53.7082416 272.668915,63.0155555 L271.857261,64 Z" id="Fill-8" fill="#FE5A78"></path>
            <path d="M257.277716,127.100401 C255.832454,133.965224 259.968524,140.598478 266.497619,141.887152 C272.999805,143.172352 279.460733,138.675888 280.940677,131.857958 L282.980907,106.993384 C283.266731,103.512922 281.414857,100.30629 278.373647,99.0135632 L264.437058,93.0918 L257.277716,127.100401 Z M268.729195,145 C267.79399,145 266.847423,144.910268 265.900259,144.722698 C257.756082,143.116197 252.573587,134.951702 254.348324,126.52264 L262.247339,89 L279.575541,96.3632717 C283.781572,98.1503949 286.348004,102.514287 285.961724,107.222636 L283.888606,132.351197 C282.320164,139.800149 275.836514,145 268.729195,145 L268.729195,145 Z" id="Fill-10" fill="#C8CBE7"></path>
            <path d="M320.090996,114 C315.278327,91.1641909 294.557988,77.1881604 270,62.548923 L271.523764,60 C296.693517,75.0031996 317.939415,89.3764417 323,113.389042 L320.090996,114 Z" id="Fill-12" fill="#FE5A78"></path>
            <g id="Group-16" transform="translate(196.000000, 0.000000)">
                <mask id="mask-4" fill="white">
                    <use xlink:href="#path-3"></use>
                </mask>
                <g id="Clip-15"></g>
                <path d="M37.6352353,38.6601091 C15.3775882,21.2271091 0.245823529,2.17324545 0.0958235294,1.98297273 L2.40111765,0.147609091 C2.54935294,0.335518182 17.4758235,19.1240636 39.4434706,36.3301545 L37.6352353,38.6601091 Z" id="Fill-14" fill="#FE5A78" mask="url(#mask-4)"></path>
            </g>
            <path d="M296.536036,310 L234.463964,310 C233.65527,310 233,309.3286 233,308.5 C233,307.6714 233.65527,307 234.463964,307 L296.536036,307 C297.34473,307 298,307.6714 298,308.5 C298,309.3286 297.34473,310 296.536036,310" id="Fill-17" fill="#C8CBE7"></path>
            <path d="M324.537736,290 L265.462264,290 C264.654509,290 264,289.3286 264,288.5 C264,287.6714 264.654509,287 265.462264,287 L324.537736,287 C325.345491,287 326,287.6714 326,288.5 C326,289.3286 325.345491,290 324.537736,290" id="Fill-19" fill="#C8CBE7"></path>
        </g>
        <rect id="Rectangle" x="0" y="0" width="540" height="540"></rect>
    </g>
</svg>