<?xml version="1.0" encoding="UTF-8"?>
<svg width="540px" height="540px" viewBox="0 0 540 540" version="1.1" xmlns="http://www.w3.org/2000/svg" xmlns:xlink="http://www.w3.org/1999/xlink">
    <!-- Generator: Sketch 61.2 (89653) - https://sketch.com -->
    <title>Page 1</title>
    <desc>Created with Sketch.</desc>
    <defs>
        <polygon id="path-1" points="0 347.527594 454.698608 347.527594 454.698608 0.506355718 0 0.506355718"></polygon>
        <path d="M13.9085679,13.7489841 C11.5942382,16.0633139 7.30514976,17.6358339 1.04276003,18.4650868 L1.04276003,18.4650868 L0.67185517,18.5139092 C7.13682162,19.3300457 11.5483305,20.9185969 13.9085679,23.2788344 L13.9085679,23.2788344 C16.2236264,25.5938928 17.7954177,29.8815238 18.626128,36.1446423 L18.626128,36.1446423 L18.6734931,36.5155471 C19.4903582,30.0513094 21.0789094,25.6390718 23.4391469,23.2788344 L23.4391469,23.2788344 C25.7986556,20.9185969 30.2108932,19.3300457 36.6758596,18.5139092 L36.6758596,18.5139092 C30.2108932,17.6970441 25.7986556,16.1092215 23.4391469,13.7489841 L23.4391469,13.7489841 C21.1248171,11.4339257 19.5515684,7.14483725 18.7215868,0.883176211 L18.7215868,0.883176211 L18.6734931,0.51227135 C17.8573566,6.97650911 16.2688053,11.388018 13.9085679,13.7489841 L13.9085679,13.7489841 Z" id="path-3"></path>
        <path d="M13.8033139,13.6449377 C11.506498,15.9417536 7.24986755,17.5023735 1.03486887,18.325351 L1.03486887,18.325351 L0.666770861,18.373804 C7.08281325,19.1837642 11.4609377,20.760294 13.8033139,23.1026702 L13.8033139,23.1026702 C16.100853,25.4002093 17.6607497,29.6553934 18.4851735,35.8711152 L18.4851735,35.8711152 L18.5018066,35.9998411 L18.5632768,35.9998411 C19.3826384,29.714694 20.9483205,25.4161192 23.2617695,23.1026702 L23.2617695,23.1026702 C25.5744954,20.7892212 29.8737934,19.2235391 36.1589404,18.4041775 L36.1589404,18.4041775 L36.1589404,18.3427073 C29.8737934,17.5240689 25.5744954,15.9576636 23.2617695,13.6449377 L23.2617695,13.6449377 C20.9649536,11.3473987 19.4036106,7.09076821 18.5799099,0.876492715 L18.5799099,0.876492715 L18.5321801,0.508394702 C17.7222199,6.92371391 16.1456901,11.3018384 13.8033139,13.6449377 L13.8033139,13.6449377 Z" id="path-5"></path>
        <path d="M6.16500368,5.99664459 C5.20994849,6.95169978 3.4414128,7.60064753 0.858631347,7.94272259 L0.858631347,7.94272259 L0.705577631,7.9618543 C3.37177336,8.29857248 5.19158205,8.95364238 6.16500368,9.92782929 L6.16500368,9.92782929 C7.1192936,10.8813539 7.76824135,12.6506549 8.11031641,15.2334364 L8.11031641,15.2334364 L8.13021339,15.3864901 C8.46693157,12.7202943 9.12200147,10.9004857 10.0954231,9.92782929 L10.0954231,9.92782929 C11.0688447,8.95364238 12.8878882,8.29857248 15.5540839,7.9618543 L15.5540839,7.9618543 C12.8878882,7.6259014 11.0688447,6.97006623 10.0954231,5.99664459 L10.0954231,5.99664459 C9.14113319,5.04235467 8.49218543,3.27305372 8.15011038,0.691037528 L8.15011038,0.691037528 L8.13021339,0.537983812 C7.79272995,3.20341428 7.13766004,5.02398823 6.16500368,5.99664459 L6.16500368,5.99664459 Z" id="path-7"></path>
        <path d="M6.16500368,5.90294702 C5.20994849,6.84307947 3.4414128,7.48188742 0.858631347,7.81861755 L0.858631347,7.81861755 L0.705577631,7.83745033 C3.37177336,8.16890728 5.19158205,8.81374172 6.16500368,9.77270695 L6.16500368,9.77270695 C7.1192936,10.7113328 7.76824135,12.4529884 8.11031641,14.9954139 L8.11031641,14.9954139 L8.11720383,15.0481457 L8.14322296,15.0481457 C8.48376748,12.4770944 9.13424577,10.7181126 10.0954231,9.77270695 L10.0954231,9.77270695 C11.0566004,8.8257947 12.8427373,8.18548013 15.4553642,7.85025662 L15.4553642,7.85025662 L15.4553642,7.82464404 C12.8427373,7.49017384 11.0566004,6.84910596 10.0954231,5.90294702 L10.0954231,5.90294702 C9.14113319,4.96356788 8.49218543,3.22191225 8.15011038,0.680240066 L8.15011038,0.680240066 L8.13021339,0.529577815 C7.79272995,3.15336093 7.13766004,4.94548841 6.16500368,5.90294702 L6.16500368,5.90294702 Z" id="path-9"></path>
        <path d="M6.16500368,5.99740986 C5.20994849,6.95169978 3.4414128,7.59988227 0.858631347,7.94195732 L0.858631347,7.94195732 L0.705577631,7.9618543 C3.37177336,8.29857248 5.19158205,8.95364238 6.16500368,9.92706402 L6.16500368,9.92706402 C7.1192936,10.8813539 7.76824135,12.6506549 8.11031641,15.2334364 L8.11031641,15.2334364 L8.13021339,15.3864901 C8.46693157,12.7202943 9.12200147,10.9004857 10.0954231,9.92706402 L10.0954231,9.92706402 C11.0688447,8.95364238 12.8878882,8.29857248 15.5540839,7.9618543 L15.5540839,7.9618543 C12.8878882,7.62513613 11.0688447,6.97006623 10.0954231,5.99740986 L10.0954231,5.99740986 C9.14036792,5.0415894 8.4929507,3.27305372 8.15011038,0.691037528 L8.15011038,0.691037528 L8.13021339,0.537983812 C7.79272995,3.20341428 7.13766004,5.02322296 6.16500368,5.99740986 L6.16500368,5.99740986 Z" id="path-11"></path>
        <path d="M6.16500368,5.90370033 C5.20994849,6.84307947 3.4414128,7.48113411 0.858631347,7.81786424 L0.858631347,7.81786424 L0.705577631,7.83745033 C3.37177336,8.16890728 5.19158205,8.81374172 6.16500368,9.77195364 L6.16500368,9.77195364 C7.1192936,10.7113328 7.76824135,12.4529884 8.11031641,14.9954139 L8.11031641,14.9954139 L8.11720383,15.048899 L8.14322296,15.048899 C8.48376748,12.4770944 9.13424577,10.7181126 10.0954231,9.77195364 L10.0954231,9.77195364 C11.0566004,8.8257947 12.8427373,8.18548013 15.4553642,7.85025662 L15.4553642,7.85025662 L15.4553642,7.82539735 C12.8427373,7.49017384 11.0566004,6.84985927 10.0954231,5.90370033 L10.0954231,5.90370033 C9.14036792,4.96281457 8.4929507,3.22191225 8.15011038,0.680240066 L8.15011038,0.680240066 L8.13021339,0.529577815 C7.79272995,3.15336093 7.13766004,4.9447351 6.16500368,5.90370033 L6.16500368,5.90370033 Z" id="path-13"></path>
    </defs>
    <g id="Page-1" stroke="none" stroke-width="1" fill="none" fill-rule="evenodd">
        <rect id="Rectangle" x="0" y="0" width="540" height="540"></rect>
        <g id="Group-168" transform="translate(42.000000, 96.000000)">
            <g id="Group-112">
                <path d="M224.264186,320.119324 L223.033138,318.839227 L223.092106,318.78167 C223.286482,318.593699 223.481586,318.405729 223.682514,318.218486 C255.183802,288.296142 318.161626,228.766195 381.524562,168.893821 L382.743962,170.185574 C319.381754,230.057949 256.404658,289.586438 224.900458,319.511697 C224.700986,319.698211 224.512434,319.880353 224.323882,320.061767 L224.264186,320.119324 Z" id="Fill-1" fill="#C8CBE7"></path>
                <path d="M223.72532,320.36405 L223.571712,318.593627 L227.323824,318.26577 C230.105512,318.022428 233.045176,317.765243 236.13772,317.500773 L237.435016,317.387844 C237.916952,317.34413 238.402528,317.301873 238.891744,317.261073 L238.966,317.25743 L238.967456,318.060314 L239.429008,318.921483 L239.038072,319.016925 L239.039528,319.031497 C238.552496,319.072297 238.07056,319.115282 237.591536,319.157539 L236.456584,319.256625 C236.42164,319.263182 236.343744,319.271196 236.259296,319.27411 C233.1784,319.537124 230.250384,319.79358 227.478888,320.036194 L223.72532,320.36405 Z" id="Fill-3" fill="#C8CBE7"></path>
                <path d="M223.793606,320.355526 L223.503862,318.602588 C224.77859,318.391303 226.097726,318.172004 227.453262,317.953433 C238.277894,316.158238 252.061846,313.896758 270.825318,310.836038 L271.111422,312.590434 C252.348678,315.650425 238.56691,317.911904 227.739366,319.707099 C226.383102,319.926399 225.066878,320.144241 223.793606,320.355526" id="Fill-5" fill="#C8CBE7"></path>
                <path d="M223.856506,320.342703 L223.440818,318.615265 L226.01721,317.989424 C240.938298,314.371349 261.748178,309.366805 293.489706,301.763455 L293.90321,303.490893 C262.163138,311.094972 241.354714,316.098787 226.435082,319.716862 L223.856506,320.342703 Z" id="Fill-7" fill="#C8CBE7"></path>
                <path d="M223.917294,320.325655 L223.38003,318.632459 L223.869974,318.476546 C224.348998,318.325003 224.83239,318.171275 225.32015,318.013904 C244.860398,311.770793 273.653526,302.64109 313.347726,290.101683 L313.882078,291.796335 C274.190062,304.335014 245.39839,313.463988 225.86251,319.706371 C225.374022,319.863742 224.887718,320.01747 224.405782,320.170469 L223.917294,320.325655 Z" id="Fill-9" fill="#C8CBE7"></path>
                <path d="M223.977354,320.304308 L223.31997,318.653369 L223.510706,318.577598 C223.959154,318.39837 224.409058,318.219142 224.869882,318.039185 C246.872226,309.301453 281.458778,295.653163 330.60169,276.315474 L331.251066,277.969327 C282.111066,297.307015 247.525242,310.954577 225.519258,319.693038 C225.057706,319.872266 224.612898,320.050037 224.168818,320.227808 L223.977354,320.304308 Z" id="Fill-11" fill="#C8CBE7"></path>
                <path d="M224.033482,320.27939 L223.263258,318.678724 C223.68841,318.473267 224.12157,318.26781 224.561282,318.062354 C248.260594,306.7637 287.77425,288.031453 345.354682,260.798258 L346.113258,262.404753 C288.53501,289.63722 249.02281,308.368738 225.31913,319.668849 C224.879418,319.874306 224.45281,320.077577 224.033482,320.27939" id="Fill-13" fill="#C8CBE7"></path>
                <path d="M224.088228,320.250903 L223.208804,318.707065 L223.675452,318.44478 C223.878564,318.331123 224.083132,318.217466 224.2877,318.098709 C254.745764,301.057472 308.76482,271.028028 357.59178,243.899747 L358.453732,245.453785 C309.628228,272.581338 255.610628,302.610053 225.166396,319.642548 C224.965468,319.759119 224.752164,319.877876 224.540316,319.996633 L224.088228,320.250903 Z" id="Fill-15" fill="#C8CBE7"></path>
                <path d="M224.131981,320.223873 L223.165197,318.733949 L223.455669,318.545978 C223.667517,318.409736 223.879365,318.273493 224.091213,318.130694 C249.963605,301.401284 294.130637,272.981249 367.312837,225.97031 L368.272341,227.466063 C295.091597,274.475545 250.926021,302.894851 225.069645,319.613332 C224.861437,319.753946 224.638669,319.897474 224.416629,320.040274 L224.131981,320.223873 Z" id="Fill-17" fill="#C8CBE7"></path>
                <path d="M224.183159,320.188319 L223.113727,318.769795 C223.385999,318.564338 223.664823,318.358153 223.943647,318.151968 C257.270759,293.503009 321.915703,245.974785 374.510791,207.320537 L375.561295,208.753633 C322.967663,247.406424 258.324175,294.933919 224.998519,319.581421 C224.724063,319.783963 224.450335,319.986506 224.183159,320.188319" id="Fill-19" fill="#C8CBE7"></path>
                <path d="M224.221889,320.156991 L223.075289,318.801123 L223.151001,318.736281 C223.369401,318.551952 223.587073,318.366896 223.812025,318.181839 C256.839201,290.447389 320.909753,236.918668 379.228377,188.215262 L380.365513,189.579872 C322.048345,238.28255 257.979249,291.809813 224.946977,319.547907 C224.722753,319.732963 224.510177,319.91292 224.298329,320.092148 L224.221889,320.156991 Z" id="Fill-21" fill="#C8CBE7"></path>
                <path d="M224.535802,319.51024 L222.760938,319.447583 L222.776226,318.842142 C224.151418,260.313249 227.340058,123.917776 230.193818,1.36512045 L231.968682,1.4066489 C229.11565,123.959304 225.92701,260.354778 224.55109,318.895327 L224.535802,319.51024 Z" id="Fill-23" fill="#C8CBE7"></path>
                <path d="M224.323954,320.055938 L222.973514,318.901884 L223.199922,318.629399 C223.290194,318.519385 223.381922,318.407186 223.47729,318.296443 C253.588098,281.804589 316.860034,205.503703 379.085106,130.481457 L380.451562,131.616568 C318.227218,206.638086 254.95601,282.937514 224.835738,319.440297 C224.737458,319.555411 224.654466,319.655954 224.572202,319.756496 C224.489938,319.857767 224.407674,319.957581 224.323954,320.055938" id="Fill-25" fill="#C8CBE7"></path>
                <path d="M224.37011,319.996924 L222.927214,318.960898 C223.076454,318.752528 223.225694,318.549985 223.382942,318.341614 C253.39547,277.156316 320.505422,185.50666 374.42911,111.865781 L375.861086,112.916378 C321.938126,186.557257 254.828902,278.205456 224.809822,319.398769 C224.653302,319.60714 224.51207,319.798753 224.37011,319.996924" id="Fill-27" fill="#C8CBE7"></path>
                <path d="M224.38649,319.972736 L222.910834,318.985524 L223.076818,318.729068 C223.151802,318.611768 223.227514,318.49374 223.307594,318.375712 C249.164698,278.012239 302.064818,195.780071 358.070586,108.719673 L367.548418,93.9865428 L369.041546,94.9489829 L359.563714,109.681384 C303.557946,196.741054 250.657826,278.973222 224.789074,319.35418 C224.704626,319.478766 224.638378,319.58368 224.57213,319.686408 L224.38649,319.972736 Z" id="Fill-29" fill="#C8CBE7"></path>
                <path d="M224.424564,319.910807 L222.872468,319.046724 L222.975116,318.863853 C223.050828,318.729068 223.127996,318.591368 223.200796,318.454397 C246.272572,277.182399 293.278076,193.409306 343.044156,104.717641 L358.552012,77.0793617 L360.100468,77.9492736 L344.591884,105.587553 C294.82726,194.278489 247.821756,278.050854 224.757988,319.309009 C224.686644,319.441609 224.605108,319.58878 224.523572,319.733036 L224.424564,319.910807 Z" id="Fill-31" fill="#C8CBE7"></path>
                <path d="M224.47465,319.804072 L222.82209,319.153459 C222.865042,319.04636 222.908722,318.939989 222.95313,318.834346 L223.06961,318.549475 C241.337314,273.980701 278.814026,182.897871 318.491482,86.4651568 L334.721514,47.0204106 L336.363154,47.696523 L320.133122,87.1419977 C280.455666,183.573984 242.978954,274.656813 224.717074,319.212473 C224.679946,319.307187 224.635538,319.413559 224.59113,319.519201 L224.47465,319.804072 Z" id="Fill-33" fill="#C8CBE7"></path>
                <path d="M224.490666,319.759993 L222.806802,319.198266 L223.007002,318.603025 C238.05549,274.454635 268.669346,184.946244 301.080634,90.182682 L320.192818,34.2992249 L321.873042,34.8740662 L302.76013,90.7582518 C270.34957,185.521814 239.735714,275.029476 224.692322,319.161838 C224.65665,319.274766 224.612242,319.402994 224.56929,319.529765 L224.490666,319.759993 Z" id="Fill-35" fill="#C8CBE7"></path>
                <path d="M224.499548,319.732235 L222.797484,319.225879 C222.82806,319.123879 222.855724,319.018965 222.884116,318.914051 L222.96274,318.629909 C234.41054,276.903284 257.214412,194.051831 281.357804,106.335721 L304.182788,23.4004827 L305.895044,23.8725957 L283.069332,106.807105 C258.926668,194.523216 236.122796,277.37394 224.672084,319.110037 L224.598556,319.377422 C224.565796,319.497636 224.533764,319.615664 224.499548,319.732235" id="Fill-37" fill="#C8CBE7"></path>
                <path d="M224.5152,319.672492 L222.781832,319.285622 C222.823328,319.101294 222.864096,318.90968 222.898312,318.718795 C233.386608,268.757878 256.278568,160.015984 278.417048,54.85428 L286.909168,14.514122 L288.646904,14.8798639 L280.154056,55.2207504 C258.016304,160.382455 235.123616,269.12362 224.641144,319.05758 C224.607656,319.247008 224.561064,319.464121 224.5152,319.672492" id="Fill-39" fill="#C8CBE7"></path>
                <path d="M224.526557,319.609835 L222.770621,319.349007 L222.849973,318.799666 C228.412621,280.938101 238.804821,210.355757 250.318141,132.162777 L268.626613,7.80618376 L270.383277,8.06555445 L252.074805,132.421419 C240.561485,210.614399 230.169285,281.196015 224.614645,319.004394 L224.526557,319.609835 Z" id="Fill-41" fill="#C8CBE7"></path>
                <path d="M224.533982,319.545138 L222.762758,319.413267 L222.813718,318.811469 C226.27099,278.115041 232.935102,199.710775 240.17215,114.558501 L249.619406,3.401399 L251.389174,3.55221286 L241.941918,114.708586 C234.704142,199.862318 228.04003,278.265126 224.584214,318.950626 L224.533982,319.545138 Z" id="Fill-43" fill="#C8CBE7"></path>
                <path d="M224.298693,320.083697 L222.998485,318.874272 L223.566325,318.270288 C255.004277,284.538982 318.807653,216.436688 381.464429,149.574419 L382.760269,150.789673 C320.103493,217.651213 256.300845,285.752779 224.865077,319.48117 L224.298693,320.083697 Z" id="Fill-45" fill="#C8CBE7"></path>
                <path d="M224.44837,319.864616 L222.848954,319.093061 L222.94869,318.886876 C223.011298,318.759376 223.074634,318.629691 223.13433,318.500005 C245.842834,271.414752 295.647498,168.567713 343.81125,69.1070642 L347.563362,61.3594574 L349.161322,62.1353838 L345.40921,69.882262 C297.245458,169.342182 247.440794,272.188493 224.738842,319.26136 C224.679874,319.389589 224.611442,319.528745 224.544466,319.667174 L224.44837,319.864616 Z" id="Fill-47" fill="#C8CBE7"></path>
                <path d="M222.963177,320.043844 L222.460129,319.430389 C192.409745,283.02742 131.741865,209.908197 66.9265688,131.807016 L68.2922968,130.671177 C133.109049,208.773814 193.777657,281.894494 223.830225,318.301106 L224.334001,318.913833 L222.963177,320.043844 Z" id="Fill-49" fill="#C8CBE7"></path>
                <path d="M222.76305,319.54441 L222.71209,318.93824 C218.878442,273.734153 211.092482,182.627281 202.849338,86.1719805 L195.792106,3.58864133 L197.560418,3.43782747 L204.61765,86.020438 C212.861522,182.476467 220.647482,273.583339 224.482586,318.799812 L224.534274,319.412539 L222.76305,319.54441 Z" id="Fill-51" fill="#C8CBE7"></path>
                <path d="M222.770548,319.609179 L222.68974,319.051824 C214.522308,263.449595 196.324492,140.254341 176.8039,8.13119856 L178.560564,7.87109929 C198.081156,139.99497 216.278972,263.190224 224.439124,318.745096 L224.526484,319.348352 L222.770548,319.609179 Z" id="Fill-53" fill="#C8CBE7"></path>
                <path d="M222.781905,319.672492 C222.736041,319.464121 222.689449,319.247008 222.650865,319.030623 C213.006321,273.079752 193.282617,179.589001 172.401393,80.6092075 L158.555561,14.9753064 L160.293297,14.6081075 L174.139129,80.2420086 C195.020353,179.22253 214.743329,272.713281 224.393697,318.691838 C224.433009,318.90968 224.473777,319.101294 224.515273,319.285622 L222.781905,319.672492 Z" id="Fill-55" fill="#C8CBE7"></path>
                <path d="M222.797557,319.732235 C222.763341,319.615664 222.730581,319.497636 222.698549,319.377422 L222.627933,319.119508 C210.149285,273.610879 184.626333,181.033754 157.603701,83.0207722 L141.329261,23.9891668 L143.041517,23.5170538 L159.315229,82.5479306 C186.337861,180.561641 211.861541,273.140223 224.337277,318.640109 L224.412989,318.914051 C224.441381,319.018965 224.469045,319.123879 224.499621,319.225879 L222.797557,319.732235 Z" id="Fill-57" fill="#C8CBE7"></path>
                <path d="M222.806438,319.759993 L222.599686,319.147995 C205.168454,268.003153 166.529126,155.202399 129.161614,46.1144346 L125.358542,35.0132229 L127.038766,34.4369246 L130.84111,45.5381362 C168.208622,154.626829 206.848678,267.428312 224.285006,318.588454 L224.490302,319.198266 L222.806438,319.759993 Z" id="Fill-59" fill="#C8CBE7"></path>
                <path d="M222.822454,319.804072 L222.705974,319.519201 C222.661566,319.413559 222.617158,319.307187 222.574934,319.200088 C201.564854,267.940861 153.392366,151.013489 110.89027,47.8502511 L112.53191,47.1726816 C155.034006,150.336649 203.207222,267.265477 224.222398,318.537818 L224.343974,318.834346 C224.388382,318.939989 224.432062,319.04636 224.475014,319.153459 L222.822454,319.804072 Z" id="Fill-61" fill="#C8CBE7"></path>
                <path d="M222.848735,319.864616 L222.752639,319.667174 C222.685663,319.528745 222.617231,319.389589 222.552439,319.249703 C200.704431,273.947988 153.224271,175.986006 107.307855,81.2494014 L98.1212232,62.2963976 L99.7191832,61.5204712 L108.905087,80.4742036 C154.822231,175.210809 202.302391,273.173519 224.156951,318.488348 C224.222471,318.629691 224.285807,318.759376 224.348415,318.886876 L224.448151,319.093061 L222.848735,319.864616 Z" id="Fill-63" fill="#C8CBE7"></path>
                <path d="M222.872541,319.910807 L222.773533,319.733036 C222.691997,319.58878 222.610461,319.441609 222.531109,319.295166 C199.106981,277.386398 151.116493,191.939053 100.307189,101.474779 L87.1973648,78.1321445 L88.7450928,77.2607755 L101.854917,100.60341 C152.664221,191.068413 200.655437,276.516486 224.088301,318.440554 C224.169109,318.591368 224.246277,318.729068 224.321989,318.863853 L224.424637,319.046724 L222.872541,319.910807 Z" id="Fill-65" fill="#C8CBE7"></path>
                <path d="M222.910615,319.972736 L222.724975,319.686408 C222.658727,319.58368 222.592479,319.478766 222.521135,319.37458 C196.985079,279.498521 144.963655,198.701634 89.8882712,113.160303 L78.2854072,95.1384109 L79.7778072,94.1766994 L91.3806712,112.197134 C146.456783,197.739922 198.478935,278.538266 224.002615,318.395383 C224.069591,318.49374 224.145303,318.611768 224.220287,318.729068 L224.386271,318.985524 L222.910615,319.972736 Z" id="Fill-67" fill="#C8CBE7"></path>
                <path d="M222.926922,319.996924 C222.784962,319.798753 222.64373,319.60714 222.495218,319.40824 C194.192034,280.566021 134.918274,199.662034 71.4941864,113.112363 L72.9261624,112.061766 C136.350978,198.612894 195.625466,279.516881 223.922098,318.351086 C224.071338,318.549985 224.220578,318.752528 224.369818,318.960898 L222.926922,319.996924 Z" id="Fill-69" fill="#C8CBE7"></path>
                <path d="M222.761302,319.511697 L222.746742,318.906256 C221.383198,260.553677 218.172718,125.670714 215.211214,1.42194886 L216.986806,1.37969183 C219.947582,125.629185 223.158062,260.512149 224.521606,318.854527 L224.536166,319.446126 L222.761302,319.511697 Z" id="Fill-71" fill="#C8CBE7"></path>
                <path d="M223.032846,320.119324 L222.97315,320.061767 C222.784598,319.880353 222.596046,319.698211 222.40167,319.516068 C189.149542,287.932586 120.648382,223.222511 64.6848384,170.375002 L65.9035104,169.08252 C121.867782,221.930029 190.36967,286.642289 223.618886,318.222129 C223.815446,318.405729 224.01055,318.593699 224.204926,318.78167 L224.263894,318.838499 L223.032846,320.119324 Z" id="Fill-73" fill="#C8CBE7"></path>
                <path d="M223.075143,320.156991 L222.998703,320.092148 C222.786855,319.91292 222.574279,319.732963 222.355879,319.552278 C191.185103,293.366766 131.122191,243.21715 67.0836712,189.762015 L68.2215352,188.397404 C132.260783,241.853268 192.324423,292.004341 223.491559,318.186939 C223.709959,318.366896 223.927631,318.551952 224.146031,318.736281 L224.221743,318.801123 L223.075143,320.156991 Z" id="Fill-75" fill="#C8CBE7"></path>
                <path d="M223.113946,320.188319 C222.84677,319.986506 222.573042,319.783963 222.298586,319.58215 C188.690466,294.731377 124.270474,247.385296 71.9025216,208.914647 L72.9537536,207.481551 C125.321706,245.953657 189.743154,293.301195 223.353458,318.152696 C223.632282,318.358153 223.911106,318.564338 224.183378,318.769795 L223.113946,320.188319 Z" id="Fill-77" fill="#C8CBE7"></path>
                <path d="M223.165124,320.223873 L222.880476,320.040274 C222.658436,319.897474 222.435668,319.753946 222.2129,319.603132 C191.616516,299.816645 135.401812,263.700004 79.214044,227.619063 L80.173548,226.12331 C136.362044,262.20498 192.578204,298.323078 223.191332,318.120494 C223.41774,318.273493 223.629588,318.409736 223.841436,318.545978 L224.131908,318.733949 L223.165124,320.223873 Z" id="Fill-79" fill="#C8CBE7"></path>
                <path d="M223.26355,320.27939 C222.844222,320.077577 222.417614,319.874306 221.984454,319.671764 C198.346294,308.400795 160.030926,290.239746 101.394894,262.514039 L102.15347,260.907543 C160.790958,288.633251 199.10851,306.795757 222.741574,318.065268 C223.175462,318.26781 223.608622,318.473267 224.033774,318.678724 L223.26355,320.27939 Z" id="Fill-81" fill="#C8CBE7"></path>
                <path d="M223.319751,320.304308 L221.766199,319.683566 C199.931295,311.017962 165.418999,297.402458 116.263711,278.063312 L116.913815,276.410188 C166.070559,295.750062 200.583583,309.364838 222.425039,318.034085 L223.977135,318.653369 L223.319751,320.304308 Z" id="Fill-83" fill="#C8CBE7"></path>
                <path d="M223.379811,320.325655 L222.891323,320.170469 C222.409387,320.01747 221.923083,319.863742 221.432411,319.705642 C198.831651,312.487705 164.373955,301.58685 133.647987,291.875749 L134.182339,290.181097 C164.909763,299.892926 199.369643,310.793781 221.974771,318.013175 C222.464715,318.171275 222.948107,318.325003 223.427131,318.476546 L223.917075,318.632459 L223.379811,320.325655 Z" id="Fill-85" fill="#C8CBE7"></path>
                <path d="M223.440599,320.342703 L220.857655,319.716862 C204.197375,315.681316 181.578415,310.242546 153.626855,303.549179 L154.039631,301.821741 C181.992647,308.514379 204.613063,313.953878 221.273343,317.989424 L223.856287,318.615265 L223.440599,320.342703 Z" id="Fill-87" fill="#C8CBE7"></path>
                <path d="M223.504226,320.355526 L219.54973,319.700542 C207.793986,317.755262 193.198314,315.364826 176.425922,312.626133 L176.712026,310.872467 C193.485874,313.611888 208.082274,316.001595 219.840202,317.946876 L223.792514,318.602588 L223.504226,320.355526 Z" id="Fill-89" fill="#C8CBE7"></path>
                <path d="M223.570329,320.36405 C219.450577,319.999766 214.923145,319.606338 210.038993,319.184496 L209.020521,319.097068 L209.171217,317.326644 L210.192601,317.414073 C215.076753,317.835914 219.605641,318.229342 223.726849,318.593627 L223.570329,320.36405 Z" id="Fill-91" fill="#C8CBE7"></path>
                <path d="M222.999067,320.084425 L222.429771,319.471698 C192.471115,287.335232 133.247587,224.150781 64.6466912,150.979101 L65.9410752,149.763847 C134.544155,222.936256 193.768411,286.121435 223.729251,318.260816 L224.297819,318.873543 L222.999067,320.084425 Z" id="Fill-93" fill="#C8CBE7"></path>
                <path d="M223.209168,320.250903 L222.761448,319.999547 C222.548144,319.880062 222.333384,319.760576 222.117896,319.635262 C190.871408,302.151054 134.580264,270.873571 89.032944,245.577642 L89.894168,244.023604 C135.442944,269.320261 191.735544,300.598473 222.996592,318.091424 C223.214992,318.218195 223.421744,318.333309 223.626312,318.446966 L224.087864,318.707065 L223.209168,320.250903 Z" id="Fill-95" fill="#C8CBE7"></path>
                <path d="M223.713963,1.93085457 C181.512531,1.93085457 141.837259,18.3775797 111.996539,48.2416386 C82.1558192,78.106426 65.7219472,117.812729 65.7219472,160.046438 C65.7219472,202.280877 82.1558192,241.987179 111.996539,271.851238 C141.837259,301.716026 181.512531,318.162751 223.713963,318.162751 C265.915395,318.162751 305.590667,301.716026 335.431387,271.851238 C365.272107,241.987179 381.705979,202.280877 381.705979,160.046438 C381.705979,117.812729 365.272107,78.106426 335.431387,48.2416386 C305.590667,18.3775797 265.915395,1.93085457 223.713963,1.93085457 M223.713963,319.587104 C181.132515,319.587104 141.099795,302.991751 110.990443,272.858121 C80.8803632,242.72522 64.2979792,202.66119 64.2979792,160.046438 C64.2979792,117.431687 80.8803632,77.3676566 110.990443,47.2347557 C141.099795,17.1011262 181.132515,0.506501432 223.713963,0.506501432 C266.295411,0.506501432 306.328131,17.1011262 336.437483,47.2347557 C366.547563,77.3676566 383.129947,117.431687 383.129947,160.046438 C383.129947,202.661918 366.547563,242.72522 336.437483,272.858121 C306.328131,302.991751 266.295411,319.587104 223.713963,319.587104" id="Fill-97" fill="#C8CBE7"></path>
                <mask id="mask-2" fill="white">
                    <use xlink:href="#path-1"></use>
                </mask>
                <g id="Clip-100"></g>
                <polygon id="Fill-99" fill="#FFFFFF" mask="url(#mask-2)" points="30.6852 254.622612 423.8052 254.622612 423.8052 193.422784 30.6852 193.422784"></polygon>
                <path d="M30.6852,254.622612 L423.8052,254.622612 L423.8052,193.422784 L30.6852,193.422784 L30.6852,254.622612 Z M32.457152,252.849274 L422.03252,252.849274 L422.03252,195.196851 L32.457152,195.196851 L32.457152,252.849274 Z" id="Fill-101" fill="#C8CBE7" mask="url(#mask-2)"></path>
                <polygon id="Fill-102" fill="#FFFFFF" mask="url(#mask-2)" points="403.738608 176.665834 454.698608 176.665834 429.218608 208.722887 454.698608 240.05137 403.738608 240.05137"></polygon>
                <path d="M454.698608,176.665834 L403.738608,176.665834 L403.738608,240.05137 L454.698608,240.05137 L429.218608,208.722887 L454.698608,176.665834 Z M451.748024,178.090188 L428.104768,207.836218 L427.392056,208.733087 L428.114232,209.621942 L451.705072,238.627017 L405.161848,238.627017 L405.161848,178.090188 L451.748024,178.090188 Z" id="Fill-103" fill="#C8CBE7" mask="url(#mask-2)"></path>
                <polygon id="Fill-104" fill="#FFFFFF" mask="url(#mask-2)" points="424.019887 254.622758 403.738535 240.05137 424.019887 240.05137"></polygon>
                <polygon id="Fill-105" fill="#C8CBE7" mask="url(#mask-2)" points="424.01632 240.05137 424.01632 254.622758 403.74152 240.05137 406.85736 240.05137 422.19632 251.067339 422.19632 240.05137"></polygon>
                <path d="M280.112269,160.563285 C280.125373,160.427043 280.131197,160.287886 280.131197,160.148729 L280.131197,144.382488 C280.131197,125.465184 265.866037,109.820614 247.535725,107.650206 L247.535725,97.6054197 L250.072805,97.6054197 C252.485397,97.6054197 254.440805,95.6477538 254.440805,93.2340034 L254.440805,61.8210061 C254.440805,59.4065272 252.485397,57.4495898 250.072805,57.4495898 L197.354685,57.4495898 C194.942093,57.4495898 192.986685,59.4065272 192.986685,61.8210061 L192.986685,93.2340034 C192.986685,95.6477538 194.942093,97.6054197 197.354685,97.6054197 L199.891765,97.6054197 L199.891765,107.650206 C181.561453,109.820614 167.297021,125.465184 167.297021,144.382488 L167.297021,160.148729 C167.297021,160.283515 167.303573,160.419029 167.315221,160.5509 C167.414229,164.516503 169.001997,168.227107 171.812805,171.039385 C171.860853,171.086742 171.908173,171.135556 171.956221,171.181456 C169.085717,173.979891 167.299205,177.887208 167.297021,182.203253 L167.297021,220.281932 C167.297021,220.416717 167.303573,220.551502 167.315221,220.684831 C167.414229,224.648248 169.001997,228.360309 171.812805,231.171858 C171.860853,231.219944 171.908173,231.267301 171.956221,231.313929 C169.085717,234.112364 167.299205,238.019682 167.297021,242.334998 L167.297021,280.415134 C167.297021,280.550648 167.303573,280.685433 167.315221,280.818761 C167.414229,284.782179 169.001997,288.49424 171.812805,291.306518 C171.860853,291.354603 171.908173,291.40196 171.956221,291.448589 C169.085717,294.247024 167.299205,298.154341 167.297021,302.469658 L167.297021,328.436599 C167.297021,338.962969 175.856117,347.527302 186.375717,347.527302 L261.051773,347.527302 C271.572101,347.527302 280.131197,338.962969 280.131197,328.436599 L280.131197,302.467472 C280.127557,298.152884 278.341773,294.246295 275.471269,291.448589 C275.519317,291.40196 275.568093,291.354603 275.615413,291.306518 C278.422581,288.497883 280.009621,284.792379 280.112269,280.831147 C280.125373,280.694905 280.131197,280.555748 280.131197,280.415863 L280.131197,242.333541 C280.127557,238.019682 278.342501,234.113093 275.471269,231.315386 C275.519317,231.269487 275.568093,231.220672 275.615413,231.173315 C278.422581,228.36468 280.009621,224.659177 280.112269,220.697945 C280.125373,220.561702 280.131197,220.422546 280.131197,220.283389 L280.131197,182.201067 C280.127557,177.88648 278.342501,173.980619 275.471269,171.182913 C275.519317,171.137013 275.568093,171.088199 275.615413,171.040842 C278.423309,168.229292 280.009621,164.524517 280.112269,160.563285" id="Fill-106" fill="#C8CBE7" mask="url(#mask-2)"></path>
                <path d="M254.287488,171.844745 L264.334616,171.844745 L264.619264,171.889916 C264.654936,171.895745 264.68988,171.902302 264.72628,171.903031 C270.406864,171.903031 275.029664,176.523618 275.031848,182.204273 L275.031848,184.719295 L275.033304,184.720752 L275.033304,220.070938 L275.030392,220.106638 L275.030392,220.132866 L275.019472,220.26838 C275.018016,220.603522 275.002728,220.936478 274.971424,221.265063 C274.848392,222.580131 274.4742,223.839827 273.878696,224.995339 C273.397488,225.933736 272.77432,226.800733 272.00992,227.565003 C271.368552,228.206144 270.647832,228.754757 269.870328,229.202827 C269.86596,229.205012 269.861592,229.207198 269.857224,229.209384 C269.602424,229.356555 269.3418,229.49134 269.075352,229.615197 C269.068072,229.61884 269.060064,229.621754 269.052784,229.624668 C268.78852,229.747068 268.51916,229.858539 268.245432,229.958353 C268.243248,229.959082 268.241064,229.95981 268.23888,229.960539 C267.67832,230.16381 267.100288,230.317538 266.50988,230.420995 C266.507696,230.420995 266.505512,230.420995 266.503328,230.421723 C266.257992,230.464709 266.011928,230.504052 265.76368,230.528823 L265.583864,230.546309 L265.509608,230.546309 L265.42516,230.553594 C265.42516,230.553594 265.223504,230.549223 265.13396,230.546309 L254.27948,230.546309 C253.881264,230.549951 253.55876,230.874165 253.55876,231.273421 C253.55876,231.675591 253.884904,232.00199 254.28676,232.00199 L264.419792,232.00199 C264.419792,232.00199 264.695704,232.035504 264.725552,232.036233 C270.406136,232.036233 275.028936,236.656091 275.03112,242.336747 L275.03112,244.897668 L275.033304,244.899125 L275.033304,280.20414 L275.029664,280.239112 L275.029664,280.267526 L275.018744,280.405954 C275.01656,280.739639 275.002,281.070409 274.970696,281.39608 C274.828008,282.92899 274.340248,284.384671 273.561288,285.688082 C273.130312,286.410823 272.618528,287.089121 272.00992,287.698934 C270.165896,289.545128 267.706712,290.611025 265.085184,290.701368 L254.283848,290.702825 C253.883448,290.705011 253.55876,291.029953 253.55876,291.431394 C253.55876,291.832836 253.884904,292.159964 254.28676,292.159964 L264.585048,292.159964 L264.797624,292.170892 C270.44472,292.210235 275.028936,296.814794 275.03112,302.470678 L275.03112,305.06657 L275.033304,305.068028 L275.033304,328.43689 C275.033304,332.168623 273.57876,335.681056 270.934664,338.326491 C268.985808,340.276143 266.563024,341.574453 263.929848,342.124523 C263.905096,342.129623 263.882528,342.136909 263.857776,342.142009 C263.462472,342.223609 263.060616,342.280437 262.655848,342.326337 C262.592512,342.333623 262.530632,342.347466 262.466568,342.354751 C261.999192,342.40138 261.527448,342.42688 261.051336,342.42688 L261.048424,342.42688 L186.376008,342.42688 L186.373096,342.42688 C185.896984,342.42688 185.42524,342.40138 184.957864,342.354751 C184.8938,342.347466 184.83192,342.333623 184.768584,342.326337 C184.363816,342.280437 183.96196,342.223609 183.566656,342.142009 C183.541904,342.136909 183.519336,342.129623 183.494584,342.124523 C180.861408,341.574453 178.438624,340.276143 176.489768,338.326491 C173.845672,335.681056 172.391128,332.168623 172.391128,328.43689 L172.391128,305.068028 L172.393312,305.06657 L172.393312,302.470678 C172.395496,296.814794 176.979712,292.210235 182.626808,292.170892 L182.839384,292.159964 L193.137672,292.159964 C193.539528,292.159964 193.865672,291.832836 193.865672,291.431394 C193.865672,291.029953 193.540984,290.705011 193.140584,290.702825 L182.339248,290.701368 C179.71772,290.611025 177.258536,289.545128 175.414512,287.698934 C174.805904,287.089121 174.29412,286.410823 173.863144,285.688082 C173.084184,284.384671 172.596424,282.92899 172.453736,281.39608 C172.422432,281.070409 172.407872,280.739639 172.405688,280.405954 L172.394768,280.267526 L172.394768,280.239112 L172.391128,280.20414 L172.391128,244.899125 L172.393312,244.897668 L172.393312,242.336747 C172.395496,236.656091 177.018296,232.036233 182.69888,232.036233 C182.728728,232.035504 183.00464,232.00199 183.00464,232.00199 L193.137672,232.00199 C193.539528,232.00199 193.865672,231.675591 193.865672,231.273421 C193.865672,230.874165 193.543168,230.549951 193.144952,230.546309 L182.290472,230.546309 C182.200928,230.549223 181.999272,230.553594 181.999272,230.553594 L181.914824,230.546309 L181.840568,230.546309 L181.660752,230.528823 C181.412504,230.504052 181.16644,230.464709 180.921104,230.421723 C180.91892,230.420995 180.916736,230.420995 180.914552,230.420995 C180.324144,230.317538 179.746112,230.16381 179.185552,229.960539 C179.183368,229.95981 179.181184,229.959082 179.179,229.958353 C178.905272,229.858539 178.635912,229.747068 178.371648,229.624668 C178.36364,229.621754 178.35636,229.61884 178.348352,229.615197 C178.082632,229.49134 177.822008,229.356555 177.567208,229.209384 C177.56284,229.207198 177.558472,229.205012 177.554104,229.202827 C176.7766,228.754757 176.05588,228.206144 175.414512,227.565003 C174.650112,226.800733 174.026944,225.933736 173.545736,224.995339 C172.950232,223.839827 172.57604,222.580131 172.453008,221.265063 C172.421704,220.936478 172.406416,220.603522 172.40496,220.26838 L172.39404,220.132866 L172.39404,220.106638 L172.391128,220.070938 L172.391128,184.720752 L172.392584,184.719295 L172.392584,182.204273 C172.394768,176.523618 177.017568,171.903031 182.698152,171.903031 C182.734552,171.902302 182.769496,171.895745 182.805168,171.889916 L183.089816,171.844745 L193.136944,171.844745 C193.5388,171.844745 193.864944,171.518346 193.864944,171.116176 C193.864944,170.719105 193.545352,170.398535 193.150776,170.390521 L182.254072,170.390521 L181.866776,170.414563 L181.644736,170.390521 L181.63236,170.390521 L181.408864,170.362835 C181.30476,170.348992 181.203568,170.327135 181.100192,170.311107 C180.935664,170.285607 180.770408,170.262292 180.608064,170.228778 C180.501776,170.20765 180.399128,170.179236 180.294296,170.154464 C180.11812,170.112936 179.941216,170.072136 179.76868,170.021865 C179.678408,169.995636 179.59032,169.962122 179.500776,169.932979 C179.318776,169.874694 179.136776,169.817137 178.959872,169.747922 C178.877608,169.715865 178.798256,169.677251 178.71672,169.643737 C178.537632,169.569423 178.357816,169.495109 178.183096,169.409866 C178.097192,169.368338 178.0142,169.318795 177.929752,169.275081 C177.765224,169.188381 177.599968,169.104596 177.439808,169.009153 C177.334976,168.946496 177.234512,168.875825 177.131136,168.809525 C176.997184,168.722825 176.861048,168.640497 176.730008,168.54724 C176.572032,168.433583 176.41988,168.308998 176.267728,168.186598 C176.19784,168.130498 176.12504,168.080227 176.056608,168.02267 C175.836024,167.836156 175.621992,167.639443 175.41524,167.432529 C175.075264,167.093016 174.772416,166.726545 174.48704,166.349146 C173.140968,164.572166 172.403504,162.418515 172.40496,160.146835 L172.391128,159.990193 L172.391128,144.382051 C172.391128,126.798029 186.686864,112.491841 204.257872,112.491841 C204.659728,112.491841 204.985872,112.165442 204.985872,111.763271 L204.985872,93.9635928 L204.9866,93.9635928 L242.437832,93.9635928 L242.43856,93.9635928 L242.43856,111.763271 C242.43856,112.165442 242.764704,112.491841 243.16656,112.491841 C260.737568,112.491841 275.033304,126.798029 275.033304,144.382051 L275.033304,159.990193 L275.019472,160.146835 C275.020928,162.418515 274.283464,164.572166 272.937392,166.349146 C272.652016,166.726545 272.349168,167.093016 272.009192,167.432529 C271.80244,167.639443 271.588408,167.836156 271.367824,168.02267 C271.299392,168.080227 271.226592,168.130498 271.156704,168.186598 C271.004552,168.308998 270.8524,168.433583 270.694424,168.54724 C270.563384,168.640497 270.427248,168.722825 270.293296,168.809525 C270.18992,168.875825 270.089456,168.946496 269.984624,169.009153 C269.824464,169.104596 269.659208,169.188381 269.49468,169.275081 C269.409504,169.318795 269.32724,169.368338 269.241336,169.409866 C269.066616,169.495109 268.8868,169.569423 268.707712,169.643737 C268.626176,169.677251 268.546824,169.715865 268.46456,169.747922 C268.286928,169.817137 268.104928,169.874694 267.923656,169.932979 C267.834112,169.962122 267.746024,169.995636 267.655752,170.021865 C267.482488,170.072136 267.306312,170.112936 267.130136,170.154464 C267.025304,170.179236 266.921928,170.20765 266.816368,170.228778 C266.654024,170.262292 266.488768,170.285607 266.32424,170.311107 C266.220864,170.327135 266.119672,170.348992 266.015568,170.362835 L265.792072,170.390521 L265.779696,170.390521 L265.557656,170.414563 L265.17036,170.390521 L254.272928,170.390521 C253.878352,170.398535 253.559488,170.719105 253.559488,171.116176 C253.559488,171.518346 253.885632,171.844745 254.287488,171.844745" id="Fill-107" fill="#FFFFFF" mask="url(#mask-2)"></path>
                <path d="M185.063861,240.999822 C182.651269,240.999822 180.695861,242.956759 180.695861,245.371238 L180.695861,262.067863 C180.695861,264.480885 182.651269,266.439279 185.063861,266.439279 C187.475725,266.439279 189.431861,264.480885 189.431861,262.067863 L189.431861,245.371238 C189.431861,242.956759 187.476453,240.999822 185.063861,240.999822" id="Fill-108" fill="#C8CBE7" mask="url(#mask-2)"></path>
                <path d="M185.063861,300.013869 C182.651269,300.013869 180.695861,301.972263 180.695861,304.385285 L180.695861,321.08191 C180.695861,323.49566 182.651269,325.453326 185.063861,325.453326 C187.475725,325.453326 189.431861,323.49566 189.431861,321.08191 L189.431861,304.385285 C189.431861,301.970806 187.476453,300.013869 185.063861,300.013869" id="Fill-109" fill="#C8CBE7" mask="url(#mask-2)"></path>
                <path d="M185.063861,180.528564 C182.651269,180.528564 180.695861,182.485501 180.695861,184.89998 L180.695861,201.596604 C180.695861,204.010355 182.651269,205.968021 185.063861,205.968021 C187.475725,205.968021 189.431861,204.010355 189.431861,201.596604 L189.431861,184.89998 C189.431861,182.485501 187.476453,180.528564 185.063861,180.528564" id="Fill-110" fill="#C8CBE7" mask="url(#mask-2)"></path>
                <path d="M260.864313,144.553265 C254.406225,145.369262 249.998185,146.957544 247.640193,149.31738 C245.282929,151.677216 243.695889,156.088704 242.879801,162.551843 L242.831753,162.181001 C242.002561,155.919676 240.432265,151.632045 238.119409,149.31738 C235.761417,146.957544 231.353377,145.369262 224.895289,144.553265 L225.265841,144.505179 C231.522273,143.675339 235.807281,142.103086 238.119409,139.78915 C240.477401,137.429313 242.064441,133.017826 242.879801,126.554687 L242.927849,126.925529 C243.757041,133.186125 245.328065,137.474485 247.640193,139.78915 C249.998185,142.148257 254.406225,143.736539 260.864313,144.553265" id="Fill-111" fill="#0DAFE7" mask="url(#mask-2)"></path>
            </g>
            <g id="Group-115" transform="translate(224.988962, 125.551876)">
                <mask id="mask-4" fill="white">
                    <use xlink:href="#path-3"></use>
                </mask>
                <g id="Clip-114"></g>
                <polygon id="Fill-113" fill="#0DAFE7" mask="url(#mask-4)" points="0.67185517 36.2743497 36.4346622 36.2743497 36.4346622 0.51227135 0.67185517 0.51227135"></polygon>
            </g>
            <g id="Group-118" transform="translate(224.988962, 126.556291)">
                <mask id="mask-6" fill="white">
                    <use xlink:href="#path-5"></use>
                </mask>
                <g id="Clip-117"></g>
                <polygon id="Fill-116" fill="#0DAFE7" mask="url(#mask-6)" points="18.5325417 -3.74527073 40.6516887 18.3738763 18.5325417 40.4930233 -3.5866053 18.3738763"></polygon>
            </g>
            <path d="M206.909492,152.168486 C204.204979,152.510141 202.358487,153.174816 201.370793,154.162511 C200.383098,155.150205 199.718423,156.996697 199.376768,159.701987 L199.356579,159.546689 C199.009488,156.926037 198.351025,155.130793 197.381966,154.162511 C196.394272,153.174816 194.548556,152.510141 191.843267,152.168486 L191.998565,152.149074 C194.619217,151.801206 196.413684,151.14352 197.381966,150.175237 C198.369661,149.186766 199.034336,147.340274 199.376768,144.635762 L199.396957,144.791059 C199.744047,147.410935 200.401734,149.206179 201.370793,150.175237 C202.358487,151.162156 204.204979,151.827607 206.909492,152.168486" id="Fill-119" fill="#0DAFE7"></path>
            <g id="Group-123" transform="translate(190.838852, 143.631347)">
                <mask id="mask-8" fill="white">
                    <use xlink:href="#path-7"></use>
                </mask>
                <g id="Clip-122"></g>
                <polygon id="Fill-121" fill="#0DAFE7" mask="url(#mask-8)" points="0.705577631 15.2870052 15.454599 15.2870052 15.454599 0.537983812 0.705577631 0.537983812"></polygon>
            </g>
            <g id="Group-126" transform="translate(190.838852, 144.635762)">
                <mask id="mask-10" fill="white">
                    <use xlink:href="#path-9"></use>
                </mask>
                <g id="Clip-125"></g>
                <polygon id="Fill-124" fill="#0DAFE7" mask="url(#mask-10)" points="8.13028992 -1.2103452 17.3219308 7.83767632 8.13028992 16.8856978 -1.06211626 7.83767632"></polygon>
            </g>
            <path d="M253.112583,254.618817 C250.40807,254.960472 248.561578,255.625147 247.573883,256.612842 C246.586189,257.600537 245.921514,259.447029 245.579858,262.152318 L245.55967,261.99702 C245.212579,259.376368 244.554116,257.581124 243.585057,256.612842 C242.597362,255.625147 240.751647,254.960472 238.046358,254.618817 L238.201656,254.599405 C240.822307,254.251538 242.616775,253.593851 243.585057,252.625569 C244.572752,251.637097 245.237427,249.790606 245.579858,247.086093 L245.600047,247.241391 C245.947138,249.861266 246.604825,251.65651 247.573883,252.625569 C248.561578,253.612487 250.40807,254.277938 253.112583,254.618817" id="Fill-127" fill="#0DAFE7"></path>
            <g id="Group-131" transform="translate(238.046358, 246.081678)">
                <mask id="mask-12" fill="white">
                    <use xlink:href="#path-11"></use>
                </mask>
                <g id="Clip-130"></g>
                <polygon id="Fill-129" fill="#0DAFE7" mask="url(#mask-12)" points="0.705577631 15.2870052 15.454599 15.2870052 15.454599 0.537983812 0.705577631 0.537983812"></polygon>
            </g>
            <g id="Group-134" transform="translate(238.046358, 246.081678)">
                <mask id="mask-14" fill="white">
                    <use xlink:href="#path-13"></use>
                </mask>
                <g id="Clip-133"></g>
                <polygon id="Fill-132" fill="#0DAFE7" mask="url(#mask-14)" points="8.13028992 -1.21026987 17.3219308 7.83775166 8.13028992 16.8857732 -1.06211626 7.83775166"></polygon>
            </g>
            <g id="Group-167" transform="translate(0.000000, 176.777042)">
                <path d="M66.1790873,52.6028045 C66.2541015,51.28836 66.575279,50.2582766 67.143348,49.5096526 C67.7114169,48.761754 68.4564612,48.3874421 69.3784808,48.3874421 C70.0171943,48.3874421 71.0994385,48.7798893 72.62667,49.5655093 L74.169924,50.3583833 C75.4393397,51.0119785 76.3722837,51.3384134 76.9694844,51.3384134 C77.8995153,51.3384134 78.5506097,50.5368344 78.9242243,48.932951 L79.6962154,48.932951 C79.4223771,51.6358318 78.3343065,52.9865468 76.434917,52.9865468 C75.6461751,52.9865468 74.5886928,52.6477799 73.261742,51.9709716 L71.7301407,51.1897041 C70.2939458,50.4381785 69.3449793,50.0609649 68.8803281,50.0609649 C67.9342747,50.0609649 67.2904633,50.9082447 66.9510785,52.6028045 L66.1790873,52.6028045 Z" id="Fill-135" fill="#C8CBE7"></path>
                <path d="M91.8933843,49.9745684 L91.8933843,54.8217637 C92.0754577,55.0952436 92.3951786,55.4419899 92.8510904,55.8627282 C91.9552893,56.6149793 91.2007772,57.4419476 90.5868257,58.3421825 C90.2547239,57.5159395 89.7318091,56.8587173 89.0180814,56.3712412 C89.299931,55.5370188 89.4419483,54.6650749 89.4419483,53.7561351 L89.4419483,40.7509696 C90.9094598,38.5609543 92.5779803,37.0818416 94.4445966,36.3129061 C96.9171532,36.3129061 98.5062897,36.8627675 99.2120061,37.9610395 C98.8136296,38.7307004 98.2040479,39.3422217 97.3818045,39.7963289 C96.859618,38.4913148 95.5851043,37.7216539 93.5611766,37.4909733 C92.9137236,38.1271586 92.4738343,38.8300817 92.242237,39.5975663 C92.009183,40.3672273 91.8933843,41.516278 91.8933843,43.0447187 L91.8933843,48.6978454 C93.113276,46.5818219 94.3535599,45.0026025 95.6149643,43.961638 C96.9339039,44.8538933 97.8588367,45.8360996 98.390491,46.906806 C98.9206887,47.976787 99.1872442,49.3920635 99.1872442,51.1519102 C99.1872442,55.5500762 98.1989498,59.0654171 96.224546,61.7022855 L94.4322156,62.0120359 C96.0169824,60.0454471 96.810094,56.7636885 96.810094,52.1689362 C96.810094,49.6314491 96.157543,47.8636229 94.8553542,46.8632813 C94.0010659,47.3754214 93.0134998,48.4127589 91.8933843,49.9745684" id="Fill-137" fill="#C8CBE7"></path>
                <path d="M108.341894,55.2599844 C110.279155,53.7235642 111.247057,52.0348078 111.247057,50.1929896 C111.247057,48.2104418 110.427727,46.8894687 108.789066,46.2286194 C107.588838,46.9968295 106.627491,47.9630767 105.907209,49.1280865 C106.942842,51.357274 107.753433,53.4014818 108.341894,55.2599844 M106.330347,56.9567203 C104.990287,52.6709931 103.509666,49.3341032 101.887757,46.9475015 C101.407083,47.3196373 100.986857,47.8564413 100.630722,48.5579136 L99.9716163,48.2728271 C100.659854,46.5064517 101.680921,45.0686875 103.032634,43.9617105 C103.924794,45.1434048 104.752863,46.5797182 105.519757,48.2728271 C106.489115,46.4643779 107.756346,45.027339 109.322905,43.9617105 C110.633105,44.1771575 111.691316,44.7487813 112.499722,45.6773071 C113.307399,46.6065584 113.712331,47.7157116 113.712331,49.0040413 C113.712331,51.1759213 112.464764,53.2237561 109.971087,55.1489965 L108.33097,56.4119368 C106.748388,57.6262745 105.958189,58.6374972 105.958189,59.4470557 C105.958189,59.9671753 106.125697,60.3574463 106.460712,60.6178688 C106.796455,60.8775659 107.298978,61.0081399 107.969008,61.0081399 C108.317132,61.0081399 108.695116,60.9399513 109.105874,60.803574 C109.515175,60.6671968 109.952151,60.4677088 110.416074,60.2022084 C110.234001,61.161927 109.823243,62.0534569 109.185986,62.8804253 C108.871363,62.9950402 108.561839,63.0820895 108.25814,63.1401223 C107.95517,63.1974298 107.658026,63.2271716 107.367437,63.2271716 C106.33763,63.2271716 105.498636,62.9776303 104.851183,62.4778222 C104.203002,61.9780142 103.878911,61.3353002 103.878911,60.5504056 C103.878911,59.6414658 104.696057,58.444538 106.330347,56.9567203" id="Fill-139" fill="#C8CBE7"></path>
                <path d="M121.739946,56.2099824 C123.208914,54.7801976 123.943034,53.0210763 123.943034,50.9297169 C123.943034,48.6395949 122.935076,46.9537401 120.918431,45.8714271 L120.308849,45.5362873 C118.399992,46.9334286 117.445927,48.5779349 117.445927,50.4705318 C117.445927,51.5702547 117.831923,52.633707 118.603186,53.6623395 C119.375177,54.6916975 120.420278,55.5411536 121.739946,56.2099824 M120.581959,58.3419649 C119.038705,57.9792594 117.754724,57.1421353 116.730015,55.8320434 C115.705306,54.5226768 115.193315,53.0616994 115.193315,51.4498365 C115.193315,50.2101093 115.449675,49.2141202 115.964578,48.4618692 C116.478754,47.7103436 117.657861,46.6069937 119.499715,45.1518195 L118.989181,44.953057 C117.587216,44.4162529 116.580715,43.8381005 115.971133,43.2178742 C115.360823,42.5983734 114.989393,41.7793845 114.856844,40.7638094 C115.670348,39.2759917 116.698698,38.1624861 117.943352,37.422567 C119.188006,36.6833734 120.652604,36.3126884 122.337147,36.3126884 C124.055191,36.3126884 125.398893,36.6267913 126.369708,37.2549971 C125.97206,38.1399983 125.369761,38.8255116 124.564997,39.3129877 C123.478383,38.4867447 122.038546,38.0732605 120.246216,38.0732605 C119.673777,38.0732605 119.101339,38.1537812 118.5289,38.3148224 C117.956461,38.476589 117.384022,38.7181508 116.810855,39.0402332 C116.802844,39.2056269 116.798474,39.3296721 116.798474,39.412369 C116.798474,40.6274321 117.947722,41.7510935 120.246216,42.7840786 L121.378713,43.2925916 C124.62326,44.7550198 126.245898,46.9537401 126.245898,49.8880269 C126.245898,51.2684838 125.996822,52.4226124 125.498669,53.3533145 C125.001245,54.2825658 124.095976,55.2807311 122.785776,56.3463596 L122.337147,56.7184954 C121.672943,57.2552994 121.088123,57.7971813 120.581959,58.3419649" id="Fill-141" fill="#C8CBE7"></path>
                <path d="M132.020683,50.8048011 L132.020683,54.821401 C132.402309,55.292918 132.850938,55.7267137 133.365113,56.1235134 C132.510825,56.7930676 131.821859,57.5329867 131.299673,58.3425452 C130.718495,57.5329867 129.996756,56.8801169 129.132999,56.3839359 C129.415577,55.4742707 129.556866,54.5986998 129.556866,53.7557724 L129.556866,49.1566677 C129.556866,48.0322809 129.361684,47.2190954 128.971318,46.7142094 C128.274341,47.185001 127.668401,47.7972478 127.154226,48.5494988 L126.519882,48.0279284 C127.374171,46.5321313 128.580953,45.1770638 130.141686,43.9612753 C131.253062,45.119031 131.880123,46.648197 132.020683,48.5494988 C132.684887,46.5161722 133.838504,44.9870062 135.481534,43.9612753 C136.14501,44.7802641 136.833247,45.2140598 137.546975,45.2633877 C137.289887,46.5031149 136.899522,47.425112 136.377335,48.0279284 C135.654868,47.8052273 135.040917,47.4454235 134.535481,46.9499679 C133.381864,47.8175593 132.544326,49.1029873 132.020683,50.8048011" id="Fill-143" fill="#C8CBE7"></path>
                <path d="M144.824157,56.2596005 C146.221024,55.153349 146.918729,53.7605602 146.918729,52.0819595 C146.918729,50.8175684 146.513798,49.6460299 145.703207,48.5673439 C144.892616,47.488658 143.797263,46.6689438 142.417147,46.1067504 C141.062521,47.1070919 140.384479,48.4708643 140.384479,50.1980675 C140.384479,51.4958275 140.781399,52.6855013 141.575239,53.7678143 C142.369079,54.8515781 143.452052,55.6814481 144.824157,56.2596005 M143.652332,58.342255 C142.023868,57.9302217 140.688178,57.0829418 139.64599,55.8011409 C138.603073,54.5207907 138.082343,53.0735961 138.082343,51.4624586 C138.082343,49.429132 139.227949,47.5445147 141.521345,45.8093319 L141.945212,45.4749175 C142.692441,44.9207036 143.261239,44.4165431 143.652332,43.9617105 C145.325951,44.449912 146.673294,45.3262083 147.692177,46.589874 C148.711788,47.8549905 149.221593,49.2804228 149.221593,50.8668963 C149.221593,52.9002229 148.040301,54.8058772 145.678445,56.5824083 L145.143149,56.99154 C144.538666,57.4463726 144.041241,57.8961274 143.652332,58.342255" id="Fill-145" fill="#C8CBE7"></path>
                <path d="M303.571465,58.4910368 C303.671241,57.7474907 303.854043,57.0989734 304.119142,56.5447595 C305.057184,56.0246399 305.813881,55.2723889 306.390689,54.2887318 C306.967498,53.3058001 307.255902,52.2800692 307.255902,51.2144406 C307.255902,49.751287 306.479541,48.7429659 304.928276,48.1894774 C305.591751,47.4372264 306.255955,46.9620823 306.920159,46.7640451 C306.828394,46.2845486 306.75338,45.6730272 306.695844,44.9294811 C307.251532,43.8624018 308.054112,42.7902445 309.104311,41.7115586 C310.153782,40.6335981 311.201797,39.8044535 312.246898,39.2263011 C313.698387,39.2263011 315.147691,39.6557443 316.591169,40.5160816 C316.192792,41.2922712 315.528588,41.9864893 314.600014,42.5987361 C313.785782,41.615079 312.591381,41.0485331 311.015353,40.8998239 C309.886498,41.7180873 309.322071,42.8961545 309.322071,44.4333001 C309.322071,44.6560012 309.400727,45.3299079 309.558766,46.4535693 L309.708067,47.5322552 C309.823865,48.3918671 309.882129,49.0694008 309.882129,49.5648564 C309.882129,51.838294 308.675346,54.0159773 306.259597,56.0986318 C306.949291,55.9586275 307.695791,55.8882627 308.500556,55.8882627 C309.595181,55.8882627 310.587117,55.9586275 311.475635,56.0986318 L311.475635,53.4211404 L311.450145,51.548855 C311.450145,49.7396804 311.692666,48.3178752 312.178438,47.2841647 C312.663482,46.2511797 313.566566,45.2268996 314.885505,44.2098736 C316.818396,44.6320627 318.269157,45.402449 319.235603,46.5217579 C320.202048,47.6425177 320.685635,49.1063967 320.685635,50.9170222 C320.685635,52.5615286 319.942776,54.2887318 318.457057,56.0986318 L318.096552,56.5447595 C317.3333,57.3717279 316.831506,58.0209706 316.591169,58.4910368 C315.935705,58.0289501 315.333406,57.7968186 314.785729,57.7968186 C314.578165,57.7968186 314.34584,57.83454 314.088752,57.9085319 C314.404103,56.8095345 314.885505,55.9542751 315.532958,55.3427537 C316.171672,55.3427537 316.777612,55.5951967 317.350051,56.0986318 C317.93924,55.2723889 318.234199,54.1733915 318.234199,52.8009142 C318.234199,51.1977562 317.930501,49.9087011 317.325289,48.9330235 C316.719348,47.9580714 315.811166,47.3008492 314.600014,46.9620823 C313.030542,48.1691659 312.246898,50.4955585 312.246898,53.9419854 L312.246898,56.5447595 C311.890034,56.9168953 311.512778,57.566138 311.114401,58.4910368 C309.820224,58.0289501 308.54571,57.7968186 307.293045,57.7968186 C305.998867,57.7968186 304.758584,58.0289501 303.571465,58.4910368" id="Fill-147" fill="#C8CBE7"></path>
                <path d="M329.4942,56.2596005 C330.891067,55.153349 331.588772,53.7605602 331.588772,52.0819595 C331.588772,50.8175684 331.183841,49.6460299 330.37325,48.5673439 C329.562659,47.488658 328.467306,46.6689438 327.08719,46.1067504 C325.732564,47.1070919 325.054522,48.4708643 325.054522,50.1980675 C325.054522,51.4958275 325.451442,52.6855013 326.245282,53.7678143 C327.039122,54.8515781 328.122095,55.6814481 329.4942,56.2596005 M328.322375,58.342255 C326.693911,57.9302217 325.358221,57.0829418 324.316033,55.8011409 C323.273116,54.5207907 322.752386,53.0735961 322.752386,51.4624586 C322.752386,49.429132 323.897992,47.5445147 326.191389,45.8093319 L326.615255,45.4749175 C327.362485,44.9207036 327.931282,44.4165431 328.322375,43.9617105 C329.995994,44.449912 331.343337,45.3262083 332.36222,46.589874 C333.381831,47.8549905 333.891636,49.2804228 333.891636,50.8668963 C333.891636,52.9002229 332.710344,54.8058772 330.348488,56.5824083 L329.813192,56.99154 C329.208709,57.4463726 328.711284,57.8961274 328.322375,58.342255" id="Fill-149" fill="#C8CBE7"></path>
                <path d="M339.355294,50.2352811 L339.355294,54.8213284 C339.546107,55.1035132 339.8651,55.4502596 340.313,55.8630184 C339.417199,56.6152694 338.662687,57.4422378 338.048736,58.3424727 C337.716634,57.5249346 337.193719,56.8677124 336.479991,56.3715314 C336.761841,55.5373089 336.903858,54.6646397 336.903858,53.7564253 L336.903858,48.5494263 C336.903858,47.9284746 336.790973,47.3423427 336.567387,46.7881288 C335.903183,47.2596458 335.322733,47.8465032 334.82458,48.5494263 L334.189508,48.0532453 C335.019763,46.4493619 336.305929,45.0863149 338.048736,43.9619281 C338.919046,45.1769913 339.355294,46.7061573 339.355294,48.5494263 C340.450648,46.2600297 341.782697,44.7308636 343.349984,43.9619281 C344.296038,44.3507483 344.941306,44.8694171 345.286517,45.5179344 C345.630271,46.1671771 345.802877,47.176949 345.802877,48.5494263 C346.814477,46.5741326 348.200419,45.0449665 349.959977,43.9619281 C350.706477,44.9035114 351.718805,45.533168 352.996232,45.8458201 C352.349508,47.1849285 352.025417,48.8838407 352.025417,50.9418312 L352.025417,51.5983281 C352.025417,53.2348549 352.20749,54.3839057 352.573094,55.0454804 C353.171023,54.7560415 353.784246,54.3135408 354.415676,53.7187039 L354.999768,54.3012089 C353.28318,55.8630184 352.017406,57.2101063 351.20463,58.3424727 C350.11656,56.8887493 349.573253,54.9460991 349.573253,52.5166982 L349.573253,51.6977093 C349.573253,49.9705061 349.702161,48.6524346 349.959977,47.7427694 C349.362048,47.420687 348.889385,47.1109366 348.540532,46.8135182 C347.246355,47.7717859 346.333075,48.9331686 345.802877,50.296941 L345.802877,53.7187039 C345.802877,54.4375861 345.901925,55.3138824 346.101477,56.3468674 C345.188197,56.7770361 344.155477,57.4422378 343.00186,58.3424727 C343.234186,56.8800444 343.349984,55.3385464 343.349984,53.7187039 L343.349984,48.8707833 C343.349984,48.0532453 343.143149,47.367732 342.72875,46.8135182 C341.38432,47.2763303 340.259107,48.4166761 339.355294,50.2352811" id="Fill-151" fill="#C8CBE7"></path>
                <path d="M356.767482,41.6684692 C356.916782,41.023579 357.149108,40.3714346 357.464459,39.7098599 C358.685079,38.3547925 359.982898,37.2710287 361.360829,36.4614702 C360.804413,37.4371478 360.439538,38.4287844 360.265476,39.4371055 C358.987321,40.0740162 357.821323,40.8175623 356.767482,41.6684692 M360.650743,44.5693872 C360.00329,45.7764708 359.680656,47.1438702 359.680656,48.6723109 L359.680656,52.3421643 C359.680656,53.3918338 359.796455,54.2637777 360.029509,54.9579958 C360.667494,54.6692823 361.302566,54.2601506 361.933268,53.7306007 L362.443074,54.4008803 C360.634721,55.9380259 359.356565,57.2510195 358.609336,58.3420374 C357.689502,57.2016916 357.228492,55.664546 357.228492,53.7306007 L357.228492,51.1517651 C357.228492,49.3665291 357.50233,47.9004738 358.050007,46.751423 C357.667653,46.6607466 357.34866,46.5367014 357.091573,46.3792872 C356.278069,47.0328824 355.630616,47.7677236 355.149942,48.585987 L354.539632,48.1151954 C355.427422,46.2886109 356.531515,44.9038016 357.850454,43.9614929 C358.572922,44.3089647 359.505866,44.5113543 360.650743,44.5693872" id="Fill-153" fill="#C8CBE7"></path>
                <path d="M365.505621,51.3262265 C367.480024,50.1358273 368.919861,49.0614938 369.824401,48.1032261 C368.579748,47.8464306 367.397727,47.2189503 366.277612,46.2186087 C365.721196,47.2189503 365.442987,48.4093495 365.442987,49.7890809 C365.442987,50.1358273 365.46338,50.6479673 365.505621,51.3262265 L365.505621,51.3262265 Z M372.47539,52.7639907 C371.41281,54.962711 369.887035,56.821939 367.895152,58.3424001 C365.995034,57.3007101 364.727803,56.2662743 364.09346,55.2376417 C363.457659,54.2082837 363.140852,52.6812939 363.140852,50.6559468 C363.140852,49.8884622 363.186006,49.1724817 363.277771,48.5116324 C364.547186,46.7430808 366.019796,45.2269721 367.696328,43.9618556 C368.832466,45.5156856 370.297792,46.3419286 372.090123,46.4413098 L371.579589,47.8921315 C370.292694,49.3712442 368.351064,50.8917054 365.754697,52.4542403 C366.252122,53.9413325 367.193805,55.0040594 368.579748,55.6402447 C369.932189,54.8140018 371.027542,53.689615 371.86508,52.2685351 L372.47539,52.7639907 Z" id="Fill-155" fill="#C8CBE7"></path>
                <path d="M380.889365,52.6028045 C380.964379,51.28836 381.285557,50.2582766 381.853626,49.5096526 C382.421695,48.761754 383.166739,48.3874421 384.088759,48.3874421 C384.727472,48.3874421 385.809716,48.7798893 387.336948,49.5655093 L388.880202,50.3583833 C390.149618,51.0119785 391.082562,51.3384134 391.679762,51.3384134 C392.609793,51.3384134 393.260888,50.5368344 393.634502,48.932951 L394.406493,48.932951 C394.132655,51.6358318 393.044584,52.9865468 391.145195,52.9865468 C390.356453,52.9865468 389.298971,52.6477799 387.97202,51.9709716 L386.440419,51.1897041 C385.004224,50.4381785 384.055257,50.0609649 383.590606,50.0609649 C382.644553,50.0609649 382.000741,50.9082447 381.661356,52.6028045 L380.889365,52.6028045 Z" id="Fill-157" fill="#C8CBE7"></path>
                <polygon id="Fill-159" fill="#FFFFFF" points="50.9806207 0.350518519 7.28293541e-05 0.350518519 25.4903468 32.2685955 7.28293541e-05 63.4612617 50.9806207 63.4612617"></polygon>
                <path d="M50.9806207,0.350518519 L7.28293541e-05,0.350518519 L25.4903468,32.2685955 L7.28293541e-05,63.4612617 L50.9806207,63.4612617 L50.9806207,0.350518519 Z M49.5568068,1.76869671 L49.5568068,62.0430835 L2.99481587,62.0430835 L26.5944398,33.1637525 L27.3176353,32.2787513 L26.6046359,31.3857705 L2.95184655,1.76869671 L49.5568068,1.76869671 Z" id="Fill-161" fill="#C8CBE7"></path>
                <polygon id="Fill-163" fill="#FFFFFF" points="30.6911638 77.9694785 50.9806935 63.4612617 30.6911638 63.4612617"></polygon>
                <polygon id="Fill-165" fill="#C8CBE7" points="30.6975728 63.4612617 30.6975728 77.9694785 50.9805479 63.4612617 47.8634515 63.4612617 32.5183066 74.4294736 32.5183066 63.4612617"></polygon>
            </g>
        </g>
    </g>
</svg>