<?xml version="1.0" encoding="UTF-8"?>
<svg width="540px" height="540px" viewBox="0 0 540 540" version="1.1" xmlns="http://www.w3.org/2000/svg" xmlns:xlink="http://www.w3.org/1999/xlink">
    <!-- Generator: Sketch 61.2 (89653) - https://sketch.com -->
    <title>Page 1</title>
    <desc>Created with Sketch.</desc>
    <defs>
        <polygon id="path-1" points="0.301650378 0.369626196 193.205469 0.369626196 193.205469 260.594458 0.301650378 260.594458"></polygon>
        <path d="M11.3770378,11.3272544 C9.42503778,13.2792544 5.80744584,14.6055819 0.525491184,15.3056222 L0.525491184,15.3056222 L0.212654912,15.346801 C5.66547103,16.0351637 9.38631738,17.3750126 11.3770378,19.365733 L11.3770378,19.365733 C13.3290378,21.3183476 14.6553652,24.9347103 15.3560202,30.216665 L15.3560202,30.216665 L15.3965844,30.5295013 C16.0849471,25.0772997 17.424796,21.3558388 19.4155164,19.365733 L19.4155164,19.365733 C21.4056222,17.3750126 25.1270831,16.0351637 30.5792846,15.346801 L30.5792846,15.346801 C25.1270831,14.6578237 21.4056222,13.3179748 19.4155164,11.3272544 L19.4155164,11.3272544 C17.4629018,9.3746398 16.1365743,5.75766247 15.436534,0.476322418 L15.436534,0.476322418 L15.3965844,0.162871537 C14.7076071,5.61507305 13.3671436,9.33653401 11.3770378,11.3272544 L11.3770378,11.3272544 Z" id="path-3"></path>
        <path d="M11.3770378,11.3272544 C9.42503778,13.2792544 5.80744584,14.6055819 0.525491184,15.3056222 L0.525491184,15.3056222 L0.212654912,15.346801 C5.66547103,16.0351637 9.38631738,17.3750126 11.3770378,19.365733 L11.3770378,19.365733 C13.3290378,21.3183476 14.6553652,24.9347103 15.3560202,30.216665 L15.3560202,30.216665 L15.3701562,30.3260655 L15.422398,30.3260655 C16.1187506,24.9851083 17.4493804,21.3312544 19.4155164,19.365733 L19.4155164,19.365733 C21.3810378,17.399597 25.0355063,16.0683526 30.3764635,15.3726146 L30.3764635,15.3726146 L30.3764635,15.3203728 C25.0355063,14.6246348 21.3810378,13.2933904 19.4155164,11.3272544 L19.4155164,11.3272544 C17.4629018,9.3746398 16.1365743,5.75766247 15.436534,0.476322418 L15.436534,0.476322418 L15.3965844,0.162871537 C14.7076071,5.61507305 13.3671436,9.33653401 11.3770378,11.3272544 L11.3770378,11.3272544 Z" id="path-5"></path>
        <path d="M11.260262,11.1662267 C9.30826196,13.1182267 5.69067003,14.4445542 0.408715365,15.1445945 L0.408715365,15.1445945 L0.0958790932,15.1851587 C5.5480806,15.8735214 9.27015617,17.2133703 11.260262,19.2040907 L11.260262,19.2040907 C13.2128766,21.1567053 14.539204,24.773068 15.2386297,30.0556373 L15.2386297,30.0556373 L15.279194,30.3684736 C15.9681713,24.916272 17.3074055,21.1948111 19.2987406,19.2040907 L19.2987406,19.2040907 C21.289461,17.2133703 25.0103073,15.8735214 30.4625088,15.1851587 L30.4625088,15.1851587 C25.0103073,14.4961814 21.289461,13.1563325 19.2987406,11.1662267 L19.2987406,11.1662267 C17.3461259,9.21361209 16.0197985,5.59602015 15.3197582,0.314680101 L15.3197582,0.314680101 L15.279194,0.00184382872 C14.5908312,5.45404534 13.2509824,9.1755063 11.260262,11.1662267 L11.260262,11.1662267 Z" id="path-7"></path>
        <path d="M11.260262,11.1662267 C9.30826196,13.1182267 5.69067003,14.4445542 0.408715365,15.1445945 L0.408715365,15.1445945 L0.0958790932,15.1851587 C5.5480806,15.8735214 9.27015617,17.2133703 11.260262,19.2040907 L11.260262,19.2040907 C13.2128766,21.1567053 14.539204,24.773068 15.2386297,30.0556373 L15.2386297,30.0556373 L15.2527657,30.1650378 L15.3050076,30.1650378 C16.0013602,24.8240806 17.3326045,21.1702267 19.2987406,19.2040907 L19.2987406,19.2040907 C21.264262,17.2379547 24.9175013,15.9073249 30.2596877,15.2109723 L30.2596877,15.2109723 L30.2596877,15.1587305 C24.9175013,14.4629924 21.264262,13.1317481 19.2987406,11.1662267 L19.2987406,11.1662267 C17.3461259,9.21361209 16.0197985,5.59602015 15.3197582,0.314680101 L15.3197582,0.314680101 L15.279194,0.00184382872 C14.5908312,5.45404534 13.2509824,9.1755063 11.260262,11.1662267 L11.260262,11.1662267 Z" id="path-9"></path>
        <path d="M11.7058539,11.2160101 C9.7538539,13.1686247 6.13687657,14.4943375 0.854307305,15.1949924 L0.854307305,15.1949924 L0.542085642,15.2355567 C5.99428715,15.9239194 9.71574811,17.2637683 11.7058539,19.2538741 L11.7058539,19.2538741 C13.6584685,21.2064887 14.984796,24.8240806 15.6848363,30.1054207 L15.6848363,30.1054207 L15.7254005,30.4188715 C16.4137632,24.9660554 17.7542267,21.2445945 19.7443325,19.2538741 L19.7443325,19.2538741 C21.7350529,17.2637683 25.4558992,15.9239194 30.9087154,15.2355567 L30.9087154,15.2355567 C25.4558992,14.5465793 21.7350529,13.2067305 19.7443325,11.2160101 L19.7443325,11.2160101 C17.7917179,9.26339547 16.466005,5.64703275 15.7653501,0.364463476 L15.7653501,0.364463476 L15.7254005,0.051627204 C15.0364232,5.50382872 13.6965743,9.22528967 11.7058539,11.2160101 L11.7058539,11.2160101 Z" id="path-11"></path>
        <path d="M11.7058539,11.2160101 C9.7538539,13.1686247 6.13687657,14.4943375 0.854307305,15.1949924 L0.854307305,15.1949924 L0.542085642,15.2355567 C5.99428715,15.9239194 9.71574811,17.2637683 11.7058539,19.2538741 L11.7058539,19.2538741 C13.6584685,21.2064887 14.984796,24.8240806 15.6848363,30.1054207 L15.6848363,30.1054207 L15.6989723,30.2154358 L15.7512141,30.2154358 C16.4475668,24.873864 17.7788111,21.2200101 19.7443325,19.2538741 L19.7443325,19.2538741 C21.7104685,17.2883526 25.3637078,15.9577229 30.7052796,15.2613703 L30.7052796,15.2613703 L30.7052796,15.2091285 C25.3637078,14.5133904 21.7104685,13.1821461 19.7443325,11.2160101 L19.7443325,11.2160101 C17.7917179,9.26339547 16.466005,5.64703275 15.7653501,0.364463476 L15.7653501,0.364463476 L15.7254005,0.051627204 C15.0364232,5.50382872 13.6965743,9.22528967 11.7058539,11.2160101 L11.7058539,11.2160101 Z" id="path-13"></path>
    </defs>
    <g id="Page-1" stroke="none" stroke-width="1" fill="none" fill-rule="evenodd">
        <rect id="Rectangle" x="0" y="0" width="540" height="540"></rect>
        <g id="Group-43" transform="translate(148.000000, 98.000000)">
            <g id="Group-20" transform="translate(0.000000, 0.003688)">
                <g id="Group-3" transform="translate(16.594458, 83.586902)">
                    <mask id="mask-2" fill="white">
                        <use xlink:href="#path-1"></use>
                    </mask>
                    <g id="Clip-2"></g>
                    <path d="M23.3150912,35.99547 C17.9120584,35.99547 12.8323103,38.0722358 8.97440605,41.865606 C5.03045642,45.7437924 2.85781159,50.926795 2.85781159,56.4588957 L2.85781159,97.2566791 C2.85781159,116.97274 18.8985068,133.013435 38.6145673,133.013435 L63.6045924,133.013435 L63.6045924,253.695097 C63.6045924,256.089616 65.5529048,258.038543 67.9474237,258.038543 L128.790698,258.038543 C131.185832,258.038543 133.134144,256.089616 133.134144,253.695097 L133.134144,178.422019 L154.892552,178.422019 C174.609227,178.422019 190.649308,162.381324 190.649308,142.665263 L190.649308,101.868095 C190.649308,96.335994 188.477278,91.1529914 184.533328,87.274805 C180.590608,83.3984625 175.355363,81.3100191 169.837398,81.4077421 C158.743696,81.5884373 149.718769,90.9268151 149.718769,102.225797 L149.718769,123.713777 C149.718769,131.310966 143.53764,137.49148 135.941066,137.49148 L133.134144,137.49148 L133.134144,37.6911778 C133.134144,28.355873 129.485822,19.5933844 122.862174,13.017062 C116.239142,6.44258338 107.429328,2.86617028 98.110003,2.92565346 C79.0835345,3.06530378 63.6045924,18.8632282 63.6045924,38.1429159 L63.6045924,92.0822811 L57.566668,92.0822811 C49.9694791,92.0822811 43.7889652,85.9017673 43.7889652,78.3045783 L43.7889652,56.8165985 C43.7889652,45.5231476 34.7634237,36.1841552 23.6703355,35.9985431 C23.5517159,35.9966992 23.4330962,35.99547 23.3150912,35.99547 M128.790698,260.594704 L67.9474237,260.594704 C64.1429904,260.594704 61.0484312,257.49953 61.0484312,253.695097 L61.0484312,135.568981 L38.6145673,135.568981 C17.4892071,135.568981 0.301650378,118.382039 0.301650378,97.2566791 L0.301650378,56.4588957 C0.301650378,50.2359738 2.74533804,44.406402 7.18220453,40.0426741 C11.6172272,35.6820191 17.4812171,33.3458882 23.7127436,33.4429965 C36.1923909,33.6513491 46.3451264,44.1365884 46.3451264,56.8165985 L46.3451264,78.3045783 C46.3451264,84.4918529 51.3787788,89.5267345 57.566668,89.5267345 L61.0484312,89.5267345 L61.0484312,38.1429159 C61.0484312,17.4643768 77.6656302,0.518976322 98.0915647,0.369626196 C98.1843708,0.369626196 98.2790207,0.369626196 98.3718267,0.369626196 C108.29224,0.369626196 117.61894,4.21032141 124.66298,11.2033491 C131.774013,18.2627547 135.690305,27.6693542 135.690305,37.6911778 L135.690305,134.935319 L135.941066,134.935319 C142.128341,134.935319 147.162608,129.901052 147.162608,123.713777 L147.162608,102.225797 C147.162608,89.5402559 157.315343,79.0550166 169.795605,78.8515809 C176.022829,78.7470972 181.890507,81.0912181 186.325529,85.4524877 C190.762396,89.8149864 193.205469,95.6451728 193.205469,101.868095 L193.205469,142.665263 C193.205469,163.791238 176.018527,180.97818 154.892552,180.97818 L135.690305,180.97818 L135.690305,253.695097 C135.690305,257.49953 132.595131,260.594704 128.790698,260.594704" id="Fill-1" fill="#C8CBE7" mask="url(#mask-2)"></path>
                </g>
                <path d="M96.8143446,168.823784 L96.8143446,168.823784 C94.1321884,168.823784 91.9576997,166.649296 91.9576997,163.96714 L91.9576997,141.98317 C91.9576997,139.301014 94.1321884,137.126525 96.8143446,137.126525 C99.4965008,137.126525 101.670989,139.301014 101.670989,141.98317 L101.670989,163.96714 C101.670989,166.649296 99.4965008,168.823784 96.8143446,168.823784" id="Fill-4" fill="#C8CBE7"></path>
                <path d="M130.173385,242.698749 L130.173385,242.698749 C127.420549,242.698749 125.188902,240.467101 125.188902,237.71488 L125.188902,197.837167 C125.188902,195.083716 127.420549,192.852069 130.173385,192.852069 C132.926222,192.852069 135.157869,195.083716 135.157869,197.837167 L135.157869,237.71488 C135.157869,240.467101 132.926222,242.698749 130.173385,242.698749" id="Fill-6" fill="#C8CBE7"></path>
                <path d="M181.297962,220.204284 L181.297962,220.204284 C178.545125,220.204284 176.313478,217.972637 176.313478,215.219801 L176.313478,194.257926 C176.313478,191.505705 178.545125,189.274057 181.297962,189.274057 C184.050798,189.274057 186.282445,191.505705 186.282445,194.257926 L186.282445,215.219801 C186.282445,217.972637 184.050798,220.204284 181.297962,220.204284" id="Fill-8" fill="#C8CBE7"></path>
                <path d="M30.9913804,168.568107 L30.9913804,168.568107 C28.2385441,168.568107 26.0068967,166.336459 26.0068967,163.583623 L26.0068967,142.111009 C26.0068967,139.358172 28.2385441,137.126525 30.9913804,137.126525 C33.7442166,137.126525 35.975864,139.358172 35.975864,142.111009 L35.975864,163.583623 C35.975864,166.336459 33.7442166,168.568107 30.9913804,168.568107" id="Fill-10" fill="#C8CBE7"></path>
                <path d="M219.309781,160.731835 C220.544532,158.414757 222.599786,157.171402 224.932844,156.303573 C227.147283,155.479996 229.447152,155.176993 231.799262,155.373054 C234.387383,155.590011 236.767766,156.389004 238.823635,158.026938 C240.531021,159.388298 241.723363,161.12457 242.494084,163.153396 C243.16032,164.908107 243.559202,166.719361 243.52294,168.606827 C243.481761,170.761034 242.873298,172.759744 241.823545,174.63123 C240.604159,176.80449 238.962537,178.626192 237.107645,180.269044 C234.775817,182.334132 232.194456,184.042747 229.493862,185.577427 C225.029338,188.11515 220.312824,190.100339 215.532391,191.945396 C214.709429,192.263764 213.88032,192.567996 213.08563,192.954585 C212.987293,193.002525 212.938739,192.998223 212.868058,192.910948 C211.834285,191.638706 210.603222,190.560066 209.43362,189.423039 C206.723807,186.787593 204.068693,184.101135 201.632381,181.207553 C199.701278,178.914444 197.913378,176.515623 196.410658,173.91521 C195.106456,171.657749 194.041953,169.299492 193.468522,166.740258 C193.035222,164.807311 192.933812,162.863301 193.311182,160.911301 C193.63631,159.227271 194.316069,157.686444 195.274245,156.263009 C196.402053,154.588812 197.754809,153.14325 199.482477,152.074444 C201.4523,150.856288 203.604663,150.265648 205.910678,150.376893 C210.452028,150.595694 214.166728,152.535402 217.102104,155.971069 C218.255726,157.321366 219.048572,158.870182 219.272905,160.665457 C219.274749,160.680208 219.28827,160.693729 219.309781,160.731835" id="Fill-12" fill="#FE5A78"></path>
                <path d="M23.4996584,53.1811214 C23.4867516,50.5555093 24.7042932,48.4855043 26.3459154,46.6140181 C27.9045652,44.8377965 29.7840413,43.4788947 31.9480816,42.535469 C34.3278499,41.4967788 36.802268,41.0696252 39.3891597,41.5361139 C41.539064,41.9233179 43.412394,42.8851819 45.0540161,44.3055446 C46.4737642,45.5329199 47.6845451,46.9379174 48.5486861,48.6158015 C49.5351345,50.5309249 49.9487668,52.5794186 49.913734,54.7250207 C49.8719406,57.2166479 49.2917491,59.5994892 48.4399003,61.9257864 C47.3680212,64.8500987 45.9070942,67.5795798 44.2587113,70.2125673 C41.5347617,74.5652322 38.3271144,78.5522045 34.9953159,82.4457562 C34.4218851,83.1162952 33.8361622,83.7776151 33.3205048,84.4954791 C33.2565854,84.5839829 33.2117189,84.6036504 33.1084645,84.5606277 C31.5952957,83.9312675 29.9991547,83.566804 28.4294418,83.1212121 C24.7940262,82.0880534 21.1819657,80.9848292 17.6633259,79.595197 C14.8748423,78.4938166 12.1625703,77.2314086 9.60579446,75.6555496 C7.38582469,74.2886579 5.32934106,72.7183305 3.60966348,70.738673 C2.31037884,69.243328 1.29811688,67.5795798 0.703174811,65.6835093 C0.189975819,64.0461894 0.0566055416,62.3670761 0.224393955,60.6603053 C0.421683627,58.6511466 0.926278086,56.7366378 1.93915466,54.9757814 C3.09462065,52.9678519 4.70858539,51.4270257 6.79088262,50.4288997 C10.8915577,48.4658368 15.0819657,48.4092927 19.2963436,50.0398519 C20.9527164,50.6802751 22.3859859,51.6661088 23.435739,53.1405572 C23.4443436,53.1522348 23.4627819,53.1577662 23.4996584,53.1811214" id="Fill-14" fill="#FE5A78"></path>
                <path d="M114.093601,6.62204937 C114.811465,5.29141965 115.998276,4.58154559 117.344886,4.08801411 C118.622659,3.62029622 119.947143,3.45250781 121.301742,3.57235668 C122.790941,3.70449773 124.159677,4.17160101 125.338498,5.1211728 C126.3188,5.90971688 127.000402,6.91337431 127.438004,8.08359093 C127.817218,9.0958529 128.040936,10.1406892 128.015122,11.2267043 C127.985007,12.467601 127.628533,13.6169209 127.01884,14.6912584 C126.310195,15.9395305 125.360009,16.9837521 124.286901,17.9247194 C122.938447,19.1066136 121.44679,20.0832282 119.886911,20.9596615 C117.308624,22.4082962 114.587132,23.5379486 111.828765,24.5864725 C111.353672,24.7671678 110.875505,24.9404877 110.416392,25.1605179 C110.359848,25.1881753 110.331576,25.1851023 110.291012,25.1353189 C109.699757,24.3996312 108.993571,23.7745733 108.323646,23.1163264 C106.770528,21.5908655 105.249369,20.0365179 103.854206,18.3635506 C102.749138,17.0366086 101.725813,15.6500494 100.868432,14.1485582 C100.12414,12.8443567 99.5175204,11.4836111 99.1942358,10.0085481 C98.9502358,8.89364635 98.897994,7.77382771 99.1204826,6.65093602 C99.3128554,5.68169673 99.708664,4.79604433 100.264886,3.97984282 C100.91883,3.01859345 101.701843,2.19009975 102.699969,1.57979244 C103.838226,0.883439798 105.079122,0.549706801 106.407294,0.620386902 C109.021843,0.759288665 111.155153,1.88709723 112.83611,3.87412997 C113.496201,4.65529874 113.948553,5.54894106 114.072704,6.58394358 C114.073319,6.59254811 114.081309,6.60053804 114.093601,6.62204937" id="Fill-16" fill="#FE5A78"></path>
                <path d="M101.874056,100.162738 C96.4218549,100.8511 92.700394,102.190949 90.7096736,104.18167 C88.7195678,106.171775 87.3797189,109.893851 86.6907416,115.345438 L86.6501773,115.032602 C85.950137,109.751261 84.6244242,106.134284 82.6718096,104.18167 C80.6810892,102.190949 76.9596282,100.8511 71.5074267,100.162738 L71.820263,100.122173 C77.1022176,99.422133 80.7198096,98.0958055 82.6718096,96.1431909 C84.66253,94.1530851 86.0023788,90.4310096 86.6907416,84.9794227 L86.7313058,85.2922589 C87.4313461,90.573599 88.7576736,94.1905763 90.7096736,96.1431909 C92.700394,98.1339113 96.4218549,99.4737602 101.874056,100.162738" id="Fill-18" fill="#C8CBE7"></path>
            </g>
            <g id="Group-23" transform="translate(71.294710, 84.819809)">
                <mask id="mask-4" fill="white">
                    <use xlink:href="#path-3"></use>
                </mask>
                <g id="Clip-22"></g>
                <polygon id="Fill-21" fill="#C8CBE7" mask="url(#mask-4)" points="0.212654912 30.3266801 30.3764635 30.3266801 30.3764635 0.163486146 0.212654912 0.163486146"></polygon>
            </g>
            <g id="Group-26" transform="translate(71.294710, 84.819809)">
                <mask id="mask-6" fill="white">
                    <use xlink:href="#path-5"></use>
                </mask>
                <g id="Clip-25"></g>
                <polygon id="Fill-24" fill="#C8CBE7" mask="url(#mask-6)" points="15.3962771 -3.45177028 34.1941108 15.3466781 15.3962771 34.1445118 -3.40217128 15.3466781"></polygon>
            </g>
            <path d="M166.291286,189.123355 C160.839084,189.811718 157.117623,191.151567 155.126903,193.142287 C153.136797,195.133008 151.796948,198.854469 151.107971,204.30667 L151.067407,203.993834 C150.367366,198.711879 149.041653,195.094902 147.089039,193.142287 C145.098318,191.151567 141.376857,189.811718 135.924656,189.123355 L136.237492,189.082791 C141.519447,188.382751 145.136424,187.056423 147.089039,185.104423 C149.079759,183.113703 150.418993,179.392242 151.107971,173.94004 L151.148535,174.252877 C151.848575,179.534217 153.174903,183.151809 155.126903,185.104423 C157.117623,187.094529 160.839084,188.434378 166.291286,189.123355" id="Fill-27" fill="#C8CBE7"></path>
            <g id="Group-31" transform="translate(135.828715, 173.938196)">
                <mask id="mask-8" fill="white">
                    <use xlink:href="#path-7"></use>
                </mask>
                <g id="Clip-30"></g>
                <polygon id="Fill-29" fill="#C8CBE7" mask="url(#mask-8)" points="0.0958790932 30.1650378 30.2596877 30.1650378 30.2596877 0.00184382872 0.0958790932 0.00184382872"></polygon>
            </g>
            <g id="Group-34" transform="translate(135.828715, 173.938196)">
                <mask id="mask-10" fill="white">
                    <use xlink:href="#path-9"></use>
                </mask>
                <g id="Clip-33"></g>
                <polygon id="Fill-32" fill="#C8CBE7" mask="url(#mask-10)" points="15.2792554 -3.61322821 34.0777038 15.1852202 15.2792554 33.9836685 -3.51857834 15.1852202"></polygon>
            </g>
            <path d="M33.3669693,161.515769 C27.9147678,162.204747 24.1933068,163.544595 22.2025864,165.534701 C20.2124806,167.525422 18.8726317,171.246883 18.1836544,176.699084 L18.1430902,176.386248 C17.4430499,171.104908 16.117337,167.487316 14.1647224,165.534701 C12.174002,163.544595 8.45254106,162.204747 3.00033955,161.515769 L3.31317582,161.47582 C8.59513048,160.775165 12.2121078,159.449452 14.1647224,157.496837 C16.1554428,155.506117 17.4946771,151.784656 18.1836544,146.332454 L18.2242186,146.645291 C18.9242589,151.927245 20.2505864,155.544223 22.2025864,157.496837 C24.1933068,159.487558 27.9147678,160.827407 33.3669693,161.515769" id="Fill-35" fill="#C8CBE7"></path>
            <g id="Group-39" transform="translate(2.458438, 146.280766)">
                <mask id="mask-12" fill="white">
                    <use xlink:href="#path-11"></use>
                </mask>
                <g id="Clip-38"></g>
                <polygon id="Fill-37" fill="#C8CBE7" mask="url(#mask-12)" points="0.542085642 30.2154358 30.7058942 30.2154358 30.7058942 0.051627204 0.542085642 0.051627204"></polygon>
            </g>
            <g id="Group-42" transform="translate(2.458438, 146.280766)">
                <mask id="mask-14" fill="white">
                    <use xlink:href="#path-13"></use>
                </mask>
                <g id="Clip-41"></g>
                <polygon id="Fill-40" fill="#C8CBE7" mask="url(#mask-14)" points="15.7251547 -3.56344484 34.523603 15.2350035 15.7251547 34.0334519 -3.07267909 15.2350035"></polygon>
            </g>
        </g>
    </g>
</svg>