<?xml version="1.0" encoding="UTF-8"?>
<svg width="89px" height="120px" viewBox="0 0 89 120" version="1.1" xmlns="http://www.w3.org/2000/svg" xmlns:xlink="http://www.w3.org/1999/xlink">
    <!-- Generator: Sketch 61.2 (89653) - https://sketch.com -->
    <title>Group 5</title>
    <desc>Created with Sketch.</desc>
    <defs>
        <path d="M10.1913253,9.73317178 C8.58429809,11.4050401 5.60603546,12.5401424 1.25704339,13.1395312 L1.25704339,13.1395312 L1,13.1742631 C5.48864556,13.7641795 8.55242066,14.9108591 10.1913253,16.6158807 L10.1913253,16.6158807 C11.7988585,18.2872228 12.8907869,21.3841524 13.4666046,25.9071957 L13.4666046,25.9071957 L13.5,26.174 C14.0672158,21.5062404 15.1697701,18.3198498 16.8091807,16.6158807 L16.8091807,16.6158807 C18.4480853,14.9108591 21.5113544,13.7641795 26,13.1742631 L26,13.1742631 C21.5113544,12.584873 18.4480853,11.4376671 16.8091807,9.73317178 L16.8091807,9.73317178 C15.2016475,8.06182966 14.1097191,4.96437383 13.5339014,0.441856781 L13.5339014,0.441856781 L13.5,0.174 C12.9332902,4.84228587 11.8307359,8.02867646 10.1913253,9.73317178 L10.1913253,9.73317178 Z" id="path-1"></path>
    </defs>
    <g id="Page-1" stroke="none" stroke-width="1" fill="none" fill-rule="evenodd">
        <g id="Group-5">
            <g id="Group-22" transform="translate(63.000000, 0.000000)">
                <mask id="mask-2" fill="white">
                    <use xlink:href="#path-1"></use>
                </mask>
                <g id="Clip-21"></g>
                <polygon id="Fill-20" fill="#C8CBE7" mask="url(#mask-2)" points="1 26.174 26 26.174 26 0.174 1 0.174"></polygon>
            </g>
            <path d="M26,107 C21.3322404,107.589904 18.1453235,108.737087 16.4413545,110.441022 C14.7368591,112.145483 13.5896533,115.331809 13.0002631,120 L12.965005,119.732149 C12.3661424,115.210249 11.2305139,112.112856 9.55864554,110.441022 C7.85467646,108.737087 4.66828587,107.589904 0,107 L0.267856781,106.965795 C4.78984759,106.365892 7.88730342,105.230813 9.55864554,103.558978 C11.2631409,101.854517 12.4103467,98.6681914 13.0002631,94 L13.0344688,94.2678514 C13.6338576,98.7897506 14.7694861,101.887144 16.4413545,103.558978 C18.1453235,105.262913 21.3322404,106.410096 26,107" id="Fill-34" fill="#C8CBE7"></path>
        </g>
    </g>
</svg>