<?xml version="1.0" encoding="UTF-8"?>
<svg width="139px" height="102px" viewBox="0 0 139 102" version="1.1" xmlns="http://www.w3.org/2000/svg" xmlns:xlink="http://www.w3.org/1999/xlink">
    <!-- Generator: Sketch 61.2 (89653) - https://sketch.com -->
    <title>Group 5</title>
    <desc>Created with Sketch.</desc>
    <defs>
        <path d="M10.1913253,9.73317178 C8.58429809,11.4050401 5.60603546,12.5401424 1.25704339,13.1395312 L1.25704339,13.1395312 L1,13.1742631 C5.48864556,13.7641795 8.55242066,14.9108591 10.1913253,16.6158807 L10.1913253,16.6158807 C11.7988585,18.2872228 12.8907869,21.3841524 13.4666046,25.9071957 L13.4666046,25.9071957 L13.5,26.174 C14.0672158,21.5062404 15.1697701,18.3198498 16.8091807,16.6158807 L16.8091807,16.6158807 C18.4480853,14.9108591 21.5113544,13.7641795 26,13.1742631 L26,13.1742631 C21.5113544,12.584873 18.4480853,11.4376671 16.8091807,9.73317178 L16.8091807,9.73317178 C15.2016475,8.06182966 14.1097191,4.96437383 13.5339014,0.441856781 L13.5339014,0.441856781 L13.5,0.174 C12.9332902,4.84228587 11.8307359,8.02867646 10.1913253,9.73317178 L10.1913253,9.73317178 Z" id="path-1"></path>
        <path d="M10.2531277,9.79725278 C8.63529484,11.4803287 5.6370064,12.6230403 1.25877175,13.2264471 L1.25877175,13.2264471 L1,13.2614119 C5.51882717,13.8552829 8.60320306,15.0096494 10.2531277,16.7261007 L10.2531277,16.7261007 C11.8714699,18.4086469 12.9707405,21.5263371 13.5504299,26.0797011 L13.5504299,26.0797011 L13.562146,26.174 L13.6054444,26.174 C14.1830963,21.5697781 15.2859326,18.419772 16.9154815,16.7261007 L16.9154815,16.7261007 C18.544521,15.0313699 21.5723542,13.8838904 26,13.2841919 L26,13.2841919 L26,13.2391616 C21.5723542,12.6389334 18.544521,11.4919836 16.9154815,9.79725278 L16.9154815,9.79725278 C15.2971392,8.11470663 14.1978687,4.99648665 13.6181792,0.44365239 L13.6181792,0.44365239 L13.5840499,0.174 C13.0135295,4.87358026 11.9035617,8.08133119 10.2531277,9.79725278 L10.2531277,9.79725278 Z" id="path-3"></path>
        <path d="M10.1908193,9.73264554 C8.58429809,11.4045139 5.60603546,12.5401424 1.25754938,13.1395312 L1.25754938,13.1395312 L1,13.1742631 C5.48915155,13.7636533 8.55242066,14.9108591 10.1908193,16.6153545 L10.1908193,16.6153545 C11.7983525,18.2872228 12.8902809,21.3841524 13.4666046,25.9066695 L13.4666046,25.9066695 L13.500506,26.174 C14.0672158,21.5062404 15.1702761,18.3193235 16.8091807,16.6153545 L16.8091807,16.6153545 C18.4475793,14.9108591 21.5113544,13.7636533 26,13.1742631 L26,13.1742631 C21.5113544,12.5843467 18.4475793,11.4371409 16.8091807,9.73264554 L16.8091807,9.73264554 C15.2016475,8.06130342 14.1097191,4.96437383 13.5333954,0.441856781 L13.5333954,0.441856781 L13.500506,0.174 C12.9327842,4.84175963 11.8302299,8.02867646 10.1908193,9.73264554 L10.1908193,9.73264554 Z" id="path-5"></path>
        <path d="M9.62291909,9.79691909 C7.94086843,11.4800293 4.82258492,12.623294 0.269657885,13.2267131 L0.269657885,13.2267131 L0,13.2616785 C4.7002058,13.8550318 7.90749231,15.0099517 9.62291909,16.7259082 L9.62291909,16.7259082 C11.3060293,18.4090184 12.449294,21.5267722 13.0527131,26.0796992 L13.0527131,26.0796992 L13.064898,26.174 L13.1104591,26.174 C13.7101697,21.5696843 14.8576726,18.4201438 16.552438,16.7259082 L16.552438,16.7259082 C18.2466736,15.0311429 21.3962141,13.88364 26,13.2844591 L26,13.2844591 L26,13.2394278 C21.3962141,12.6386576 18.2466736,11.4916845 16.552438,9.79691909 L16.552438,9.79691909 C14.8693278,8.11433865 13.7260631,4.99658492 13.122644,0.443657885 L13.122644,0.443657885 L13.0882083,0.174 C12.4937955,4.87314624 11.3394054,8.08149231 9.62291909,9.79691909 L9.62291909,9.79691909 Z" id="path-7"></path>
        <path d="M9.55917178,9.7329783 C7.88730342,11.4048128 4.78984759,12.5398922 0.267856781,13.1392688 L0.267856781,13.1392688 L0,13.174 C4.66828587,13.7639045 7.85415022,14.9105609 9.55917178,16.6150217 L9.55917178,16.6150217 C11.2305139,18.2868562 12.3661424,21.3842494 12.965005,25.9061486 L12.965005,25.9061486 L13.0002631,26.174 C13.5901795,21.5058086 14.7368591,18.3200087 16.4413545,16.6150217 L16.4413545,16.6150217 C18.1458498,14.9105609 21.3322404,13.7639045 26,13.174 L26,13.174 C21.3322404,12.5840955 18.1458498,11.4369129 16.4413545,9.7329783 L16.4413545,9.7329783 C14.7694861,8.06114378 13.6338576,4.96427688 13.034995,0.44185136 L13.034995,0.44185136 L13.0002631,0.174 C12.4103467,4.84219139 11.2636671,8.02851749 9.55917178,9.7329783 L9.55917178,9.7329783 Z" id="path-9"></path>
        <path d="M9.62344887,9.79725278 C7.94033865,11.4803287 4.82205514,12.6230403 0.269657885,13.2264471 L0.269657885,13.2264471 L0,13.2614119 C4.69967602,13.8552829 7.90696253,15.0096494 9.62344887,16.725571 L9.62344887,16.725571 C11.3060293,18.4086469 12.449294,21.5268669 13.0521833,26.0791714 L13.0521833,26.0791714 L13.064898,26.174 L13.1099293,26.174 C13.7101697,21.5692484 14.8576726,18.4203018 16.5519082,16.725571 L16.5519082,16.725571 C18.2461438,15.0313699 21.3956843,13.8838904 26,13.2841919 L26,13.2841919 L26,13.2391616 C21.3956843,12.6384036 18.2461438,11.4914538 16.5519082,9.79725278 L16.5519082,9.79725278 C14.868798,8.11417686 13.7255333,4.99648665 13.122644,0.44365239 L13.122644,0.44365239 L13.0876785,0.174 C12.4937955,4.87358026 11.3394054,8.08133119 9.62344887,9.79725278 L9.62344887,9.79725278 Z" id="path-11"></path>
    </defs>
    <g id="Page-1" stroke="none" stroke-width="1" fill="none" fill-rule="evenodd">
        <g id="Group-5">
            <g id="Group-22" transform="translate(58.000000, 0.000000)">
                <mask id="mask-2" fill="white">
                    <use xlink:href="#path-1"></use>
                </mask>
                <g id="Clip-21"></g>
                <polygon id="Fill-20" fill="#C8CBE7" mask="url(#mask-2)" points="1 26.174 26 26.174 26 0.174 1 0.174"></polygon>
            </g>
            <g id="Group-25" transform="translate(58.000000, 0.000000)">
                <mask id="mask-4" fill="white">
                    <use xlink:href="#path-3"></use>
                </mask>
                <g id="Clip-24"></g>
                <polygon id="Fill-23" fill="#C8CBE7" mask="url(#mask-4)" points="13.5 -2.826 29 13.174 13.5 29.174 -2 13.174"></polygon>
            </g>
            <path d="M139,88.0002631 C134.33224,88.5896533 131.145324,89.7368591 129.441354,91.4413545 C127.736859,93.1453235 126.589653,96.3322404 126.000263,101 L125.965005,100.732669 C125.366142,96.2101524 124.230514,93.1132228 122.558646,91.4413545 C120.854676,89.7368591 117.668286,88.5896533 113,88.0002631 L113.267857,87.9655312 C117.789848,87.3661424 120.887303,86.2305139 122.558646,84.5586455 C124.263141,82.8546765 125.410347,79.6682859 126.000263,75 L126.034469,75.2678568 C126.633858,79.7898476 127.769486,82.8873034 129.441354,84.5586455 C131.145324,86.2631409 134.33224,87.4103467 139,88.0002631" id="Fill-26" fill="#C8CBE7"></path>
            <g id="Group-30" transform="translate(113.000000, 75.000000)">
                <mask id="mask-6" fill="white">
                    <use xlink:href="#path-5"></use>
                </mask>
                <g id="Clip-29"></g>
                <polygon id="Fill-28" fill="#C8CBE7" mask="url(#mask-6)" points="0 26.174 25 26.174 25 0.174 0 0.174"></polygon>
            </g>
            <g id="Group-33" transform="translate(113.000000, 75.000000)">
                <mask id="mask-8" fill="white">
                    <use xlink:href="#path-7"></use>
                </mask>
                <g id="Clip-32"></g>
                <polygon id="Fill-31" fill="#C8CBE7" mask="url(#mask-8)" points="13 -2.826 29 13.1742616 13 29.174 -3 13.1742616"></polygon>
            </g>
            <path d="M26,65 C21.3322404,65.5899045 18.1453235,66.7370871 16.4413545,68.4410217 C14.7368591,70.1454825 13.5896533,73.3318086 13.0002631,78 L12.965005,77.7321486 C12.3661424,73.2102494 11.2305139,70.1128562 9.55864554,68.4410217 C7.85467646,66.7370871 4.66828587,65.5899045 0,65 L0.267856781,64.965795 C4.78984759,64.3658922 7.88730342,63.2308128 9.55864554,61.5589783 C11.2631409,59.8545175 12.4103467,56.6681914 13.0002631,52 L13.0344688,52.2678514 C13.6338576,56.7897506 14.7694861,59.8871438 16.4413545,61.5589783 C18.1453235,63.2629129 21.3322404,64.4100955 26,65" id="Fill-34" fill="#C8CBE7"></path>
            <g id="Group-38" transform="translate(0.000000, 52.000000)">
                <mask id="mask-10" fill="white">
                    <use xlink:href="#path-9"></use>
                </mask>
                <g id="Clip-37"></g>
                <polygon id="Fill-36" fill="#C8CBE7" mask="url(#mask-10)" points="0 26.174 26 26.174 26 0.174 0 0.174"></polygon>
            </g>
            <g id="Group-41" transform="translate(0.000000, 52.000000)">
                <mask id="mask-12" fill="white">
                    <use xlink:href="#path-11"></use>
                </mask>
                <g id="Clip-40"></g>
                <polygon id="Fill-39" fill="#C8CBE7" mask="url(#mask-12)" points="13 -2.826 29 13.174 13 29.174 -3 13.174"></polygon>
            </g>
        </g>
    </g>
</svg>