<?xml version="1.0" encoding="UTF-8"?>
<svg width="123px" height="134px" viewBox="0 0 123 134" version="1.1" xmlns="http://www.w3.org/2000/svg" xmlns:xlink="http://www.w3.org/1999/xlink">
    <!-- Generator: Sketch 61.2 (89653) - https://sketch.com -->
    <title>Combined Shape</title>
    <desc>Created with Sketch.</desc>
    <g id="Symbols" stroke="none" stroke-width="1" fill="none" fill-rule="evenodd">
        <path d="M15.6224838,81 C19.8996392,91.4159399 25.2421229,97.0594367 31.8749705,98.4697199 C32.1925291,95.6688324 32.4456341,92.707262 32.6320567,89.6108905 L32.667871,89 L33,89.179 L33,89 L89,89 L89,89.261 L89.020991,89.6108905 C90.2380849,109.713124 94.5990898,124.133686 100.535255,125.851942 L101,125.96779 L99.3265613,134 C88.6045974,131.751284 82.9630462,119.182103 81.2372756,97.0010572 L40.7627334,97.0009407 C39.0542312,118.960248 33.5078608,131.498935 22.9935753,133.929443 L22.6734387,134 L21,125.96779 L21.4647446,125.851942 C25.5441013,124.671149 28.7189541,117.491702 30.6987646,106.592016 C21.3086353,104.85546 13.8482156,97.6010324 8.52968913,85.3373553 L8,84.0821748 L15.6224838,81 Z M74,103 L74,131 L66,131 L66,103 L74,103 Z M57,103 L57,131 L49,131 L49,103 L57,103 Z M98.9517263,0 L101.174076,29.483987 L101.903745,30.3053618 C106.198405,35.3360383 108.67752,41.1559011 108.970634,47.2938376 L108.970634,47.2938376 L109,48.5255262 C109,50.0361792 108.869901,51.5203353 108.617721,52.9729821 L123,54.8137582 L121.97761,63 L105.880231,60.9402769 C105.272394,62.0964674 104.581871,63.2208034 103.814132,64.3098664 L121,69.3832682 L118.620164,77 L97.7975014,70.852524 C89.0423525,78.3377415 75.9623988,83 61.5,83 C47.0376012,83 33.9576475,78.3377415 25.2024986,70.852524 L4.37983578,77 L2,69.3832682 L19.1858678,64.3098664 C18.4181287,63.2208034 17.7276063,62.0964674 17.1197695,60.9402769 L1.02239028,63 L0,54.8137582 L14.3822785,52.9729821 C14.130099,51.5203353 14,50.0361792 14,48.5255262 C14,41.7804418 16.6347103,35.3793469 21.4180874,29.9336631 L21.4180874,29.9336631 L22.0845112,29.2016934 L24.2813507,0 L44.6945112,16.2535503 L46.5833719,15.7689649 C50.6670838,14.7982918 54.9394521,14.22949 59.3080877,14.0867848 L59.3080877,14.0867848 L61.5,14.0510525 C66.8321297,14.0510525 72.0452275,14.6832807 76.9744831,15.9043477 L76.9744831,15.9043477 L78.4855982,16.2992155 L98.9517263,0 Z M91.2036638,16 L79.6085462,25.2179159 L77.5317472,24.5616529 C72.4006863,22.9402513 66.7931892,22.08713 61,22.08713 C55.2655165,22.08713 49.7126773,22.9230282 44.6231347,24.5129897 L44.6231347,24.5129897 L42.5525658,25.1598307 L31.0328217,16.0041172 L29.7814234,32.5304561 L28.6803868,33.6146132 C24.3126108,37.9154288 22,42.9000523 22,48.043565 C22,61.993216 39.209596,74 61,74 C82.790404,74 100,61.993216 100,48.043565 C100,42.9878544 97.7665549,38.0864878 93.5397172,33.8336881 L93.5397172,33.8336881 L92.4682568,32.7556466 L91.2036638,16 Z" id="Combined-Shape" fill="#000000" fill-rule="nonzero"></path>
    </g>
</svg>