<?xml version="1.0" encoding="UTF-8"?>
<svg width="14px" height="14px" viewBox="0 0 14 14" version="1.1" xmlns="http://www.w3.org/2000/svg" xmlns:xlink="http://www.w3.org/1999/xlink">
    <!-- Generator: Sketch 61.2 (89653) - https://sketch.com -->
    <title>Fill 80</title>
    <desc>Created with Sketch.</desc>
    <g id="Page-1" stroke="none" stroke-width="1" fill="none" fill-rule="evenodd">
        <g id="Desktop-HD" transform="translate(-1213.000000, -73.000000)" fill="#4E78F4">
            <path d="M1227,84.136 C1227,85.425 1225.406,87 1223.545,87 C1221.712,87 1218.179,84.795 1216.692,83.308 C1215.205,81.821 1213,78.288 1213,76.454 C1213,74.594 1214.575,73 1215.864,73 L1217.045,73 C1217.236,73 1217.41,73.108 1217.494,73.279 C1217.495,73.28 1218.206,74.727 1218.672,75.635 C1219.186,76.634 1218.164,77.835 1217.624,78.369 C1217.814,78.872 1218.294,79.95 1219.172,80.828 C1220.049,81.705 1221.128,82.185 1221.63,82.376 C1222.165,81.837 1223.368,80.817 1224.365,81.328 C1225.272,81.794 1226.72,82.505 1226.721,82.506 C1226.892,82.59 1227,82.764 1227,82.954 L1227,84.136 Z" id="Fill-80"></path>
        </g>
    </g>
</svg>